<svg width="220" height="220" viewBox="0 0 220 220" fill="none" xmlns="http://www.w3.org/2000/svg">
<path d="M156.093 213.125C179.432 213.125 198.352 203.666 198.352 191.997C198.352 180.329 179.432 170.87 156.093 170.87C132.753 170.87 113.833 180.329 113.833 191.997C113.833 203.666 132.753 213.125 156.093 213.125Z" fill="black" fill-opacity="0.25"/>
<path d="M172.296 184.005C172.296 184.005 169.559 191.997 156.093 191.997C142.626 191.997 139.889 184.005 139.889 184.005L121.133 136.065H191.048L172.292 184.005H172.296Z" fill="#BF6D00"/>
<path d="M198.017 112.252C198.021 112.032 198.039 111.818 198.039 111.594C198.039 94.2176 179.257 80.1324 156.093 80.1324C132.928 80.1324 114.146 94.2176 114.146 111.594C114.146 111.813 114.164 112.032 114.168 112.252C114.164 112.471 114.146 112.686 114.146 112.909C114.146 113.132 114.164 113.347 114.168 113.566C114.164 113.786 114.146 114 114.146 114.224C114.146 114.447 114.164 114.662 114.168 114.881C114.164 115.1 114.146 115.315 114.146 115.539C114.146 115.762 114.164 115.977 114.168 116.196C114.164 116.415 114.146 116.63 114.146 116.854C114.146 117.077 114.164 117.292 114.168 117.511C114.164 117.73 114.146 117.945 114.146 118.168C114.146 118.392 114.164 118.607 114.168 118.826C114.164 119.045 114.146 119.26 114.146 119.483C114.146 119.707 114.164 119.921 114.168 120.141C114.164 120.36 114.146 120.575 114.146 120.798C114.146 121.021 114.164 121.236 114.168 121.455C114.164 121.675 114.146 121.889 114.146 122.113C114.146 122.336 114.164 122.551 114.168 122.77C114.164 122.989 114.146 123.204 114.146 123.428C114.146 123.651 114.164 123.866 114.168 124.085C114.164 124.304 114.146 124.519 114.146 124.743C114.146 124.966 114.164 125.181 114.168 125.4C114.164 125.619 114.146 125.834 114.146 126.057C114.146 126.281 114.164 126.496 114.168 126.715C114.164 126.934 114.146 127.149 114.146 127.372C114.146 127.596 114.164 127.811 114.168 128.03C114.164 128.249 114.146 128.464 114.146 128.687C114.146 128.911 114.164 129.125 114.168 129.345C114.164 129.564 114.146 129.778 114.146 130.002C114.146 130.225 114.164 130.44 114.168 130.659C114.164 130.878 114.146 131.093 114.146 131.317C114.146 131.54 114.164 131.755 114.168 131.974C114.164 132.193 114.146 132.408 114.146 132.632C114.146 150.008 132.928 164.093 156.093 164.093C179.257 164.093 198.039 150.008 198.039 132.632C198.039 132.412 198.021 132.193 198.017 131.974C198.021 131.755 198.039 131.54 198.039 131.317C198.039 131.093 198.021 130.878 198.017 130.659C198.021 130.44 198.039 130.225 198.039 130.002C198.039 129.778 198.021 129.564 198.017 129.345C198.021 129.125 198.039 128.911 198.039 128.687C198.039 128.464 198.021 128.249 198.017 128.03C198.021 127.811 198.039 127.596 198.039 127.372C198.039 127.149 198.021 126.934 198.017 126.715C198.021 126.496 198.039 126.281 198.039 126.057C198.039 125.834 198.021 125.619 198.017 125.4C198.021 125.181 198.039 124.966 198.039 124.743C198.039 124.519 198.021 124.304 198.017 124.085C198.021 123.866 198.039 123.651 198.039 123.428C198.039 123.204 198.021 122.989 198.017 122.77C198.021 122.551 198.039 122.336 198.039 122.113C198.039 121.889 198.021 121.675 198.017 121.455C198.021 121.236 198.039 121.021 198.039 120.798C198.039 120.575 198.021 120.36 198.017 120.141C198.021 119.921 198.039 119.707 198.039 119.483C198.039 119.26 198.021 119.045 198.017 118.826C198.021 118.607 198.039 118.392 198.039 118.168C198.039 117.945 198.021 117.73 198.017 117.511C198.021 117.292 198.039 117.077 198.039 116.854C198.039 116.63 198.021 116.415 198.017 116.196C198.021 115.977 198.039 115.762 198.039 115.539C198.039 115.315 198.021 115.1 198.017 114.881C198.021 114.662 198.039 114.447 198.039 114.224C198.039 114 198.021 113.786 198.017 113.566C198.021 113.347 198.039 113.132 198.039 112.909C198.039 112.686 198.021 112.471 198.017 112.252Z" fill="#F8A73C"/>
<path d="M156.093 139.558C172.825 139.558 186.39 130.168 186.39 118.585C186.39 107.002 172.825 97.6121 156.093 97.6121C139.36 97.6121 125.795 107.002 125.795 118.585C125.795 130.168 139.36 139.558 156.093 139.558Z" fill="#311B11"/>
<path d="M207.664 97.9215C206.13 97.0922 205.245 95.3906 205.417 93.6547C205.575 92.0605 205.657 90.4492 205.657 88.8121C205.657 61.4367 183.468 39.2477 156.093 39.2477C128.717 39.2477 106.528 61.4367 106.528 88.8121C106.528 90.4449 106.61 92.0605 106.769 93.6547C106.941 95.3906 106.056 97.0922 104.522 97.9215C99.9454 100.396 96.8345 105.235 96.8345 110.804C96.8345 117.348 101.136 122.878 107.061 124.751C108.488 125.202 109.626 126.277 110.073 127.703C112.23 134.544 119.036 139.545 127.119 139.545C129.04 139.545 130.887 139.262 132.623 138.742C134.381 138.213 136.254 138.763 137.397 140.203C141.569 145.454 148.384 148.874 156.088 148.874C163.793 148.874 170.608 145.454 174.78 140.203C175.923 138.768 177.796 138.213 179.554 138.742C181.285 139.262 183.137 139.545 185.058 139.545C193.14 139.545 199.951 134.544 202.104 127.703C202.555 126.277 203.693 125.202 205.116 124.751C211.041 122.882 215.342 117.352 215.342 110.804C215.342 105.235 212.231 100.396 207.655 97.9215H207.664Z" fill="#FCFCFC"/>
<path d="M174.983 115.554C175.598 113.26 173.305 110.652 169.862 109.729C166.419 108.807 163.13 109.919 162.515 112.214C161.9 114.508 164.193 117.116 167.636 118.039C171.079 118.961 174.368 117.849 174.983 115.554Z" fill="#FF0080"/>
<path d="M113.43 99.0653C114.045 96.7707 111.752 94.1628 108.309 93.2403C104.866 92.3177 101.577 93.4299 100.962 95.7245C100.347 98.019 102.64 100.627 106.083 101.549C109.526 102.472 112.815 101.36 113.43 99.0653Z" fill="#FF0080"/>
<path d="M136.271 88.1891C135.919 83.7977 132.589 80.0207 127.987 78.7875C125.379 78.0871 122.68 78.2891 120.321 79.3418C118.216 75.9344 116.093 71.0961 116.316 65.6434C116.634 57.8961 103.692 57.6469 104.706 68.7715C105.256 74.8215 110.211 78.7574 114.997 81.1766C112.256 80.7383 108.904 79.6941 106.184 77.2664C102.047 73.5797 96.0481 80.618 102.652 85.0996C106.588 87.768 111.517 86.3715 115.148 84.5797C115.006 84.9363 114.881 85.2973 114.778 85.6754C114.495 86.7324 115.122 87.8195 116.179 88.1031C117.236 88.3867 118.323 87.7594 118.607 86.7023C119.019 85.1641 120.089 83.8879 121.619 83.1102C123.217 82.298 125.116 82.1219 126.964 82.616C129.95 83.4152 132.103 85.7828 132.322 88.507C132.404 89.5426 133.272 90.3289 134.295 90.3289C134.346 90.3289 134.402 90.3289 134.454 90.3203C135.545 90.2344 136.357 89.2762 136.271 88.1891Z" fill="#4E342E"/>
<path d="M188.779 92.9887C195.22 83.8621 183.885 77.6058 180.288 84.4723C177.753 89.3105 173.495 92.4387 169.963 94.3336C168.498 92.3183 166.293 90.7414 163.608 90.0195C159.006 88.7863 154.236 90.3933 151.736 94.0199C151.112 94.9223 151.34 96.1555 152.243 96.7742C153.141 97.3973 154.378 97.1695 154.997 96.2672C156.548 94.0156 159.599 93.0445 162.585 93.8437C166.319 94.8449 168.648 98.3082 167.78 101.561C167.496 102.618 168.124 103.705 169.181 103.989C169.353 104.036 169.525 104.057 169.696 104.057C170.573 104.057 171.372 103.473 171.609 102.588C171.712 102.21 171.785 101.832 171.836 101.454C174.084 104.818 177.654 108.496 182.398 108.152C190.36 107.572 188.68 98.4758 183.257 99.6015C179.691 100.341 176.266 99.5715 173.671 98.5789C179.025 98.8754 185.286 97.943 188.787 92.9801L188.779 92.9887Z" fill="#4E342E"/>
<path d="M93.5258 44.9367L137.062 101.582C139.416 104.646 136.911 109.029 133.074 108.556L61.4496 99.7004L93.5258 44.9367Z" fill="#FDBE00"/>
<path d="M87.0579 77.7402C95.9452 62.347 98.0416 46.9192 91.7405 43.2813C85.4394 39.6433 73.1268 49.1728 64.2395 64.566C55.3522 79.9591 53.2558 95.3869 59.5569 99.0249C65.858 102.663 78.1707 93.1334 87.0579 77.7402Z" fill="#4E342E"/>
<path d="M115.057 93.9039C117.962 88.8723 119.414 83.4281 119.234 78.3922L127.656 89.3535C126.728 92.5891 125.379 95.7903 123.613 98.8453C121.95 101.724 119.995 104.354 117.816 106.674L104.238 104.994C108.479 102.605 112.269 98.7379 115.057 93.9039Z" fill="#9E00FF"/>
<path d="M77.3266 100.796C84.7688 97.5047 91.4676 91.1883 96.1899 83.007C100.912 74.8258 103.031 65.8711 102.163 57.7801C102.089 57.1055 101.991 56.4481 101.879 55.8035L111.676 68.5524C110.675 75.1223 108.324 81.7481 104.745 87.9484C101.226 94.0457 96.7485 99.3137 91.6696 103.439L75.6809 101.462C76.2266 101.256 76.7766 101.041 77.3266 100.796Z" fill="#9E00FF"/>
<path d="M57.1636 27.2794L58.1013 27.8208C59.4392 28.5932 61.15 28.1348 61.9224 26.7969L62.4638 25.8591C63.2363 24.5212 62.7779 22.8105 61.44 22.038L60.5022 21.4966C59.1643 20.7242 57.4535 21.1826 56.6811 22.5205L56.1397 23.4582C55.3672 24.7961 55.8256 26.5069 57.1636 27.2794Z" fill="#FF68B4"/>
<path d="M91.3707 18.1151L92.3085 18.6565C93.6464 19.429 95.3571 18.9706 96.1296 17.6326L96.671 16.6949C97.4434 15.357 96.985 13.6462 95.6471 12.8738L94.7094 12.3324C93.3715 11.5599 91.6607 12.0183 90.8883 13.3562L90.3468 14.294C89.5744 15.6319 90.0328 17.3427 91.3707 18.1151Z" fill="#FAA82D"/>
<path d="M124.845 68.93L125.782 69.4715C127.12 70.2439 128.831 69.7855 129.603 68.4476L130.145 67.5098C130.917 66.1719 130.459 64.4612 129.121 63.6887L128.183 63.1473C126.845 62.3749 125.135 62.8333 124.362 64.1712L123.821 65.1089C123.048 66.4468 123.507 68.1576 124.845 68.93Z" fill="#FF0080"/>
<path d="M55.9549 47.4727L56.8927 48.0141C58.2306 48.7866 59.9414 48.3282 60.7138 46.9902L61.2552 46.0525C62.0277 44.7146 61.5693 43.0038 60.2314 42.2314L59.2936 41.69C57.9557 40.9175 56.2449 41.3759 55.4725 42.7138L54.9311 43.6516C54.1586 44.9895 54.617 46.7003 55.9549 47.4727Z" fill="#00AEFF"/>
<path d="M16.6163 74.7129L17.5541 75.2543C18.892 76.0267 20.6028 75.5683 21.3752 74.2304L21.9166 73.2927C22.689 71.9548 22.2306 70.244 20.8927 69.4715L19.955 68.9301C18.6171 68.1577 16.9063 68.6161 16.1339 69.954L15.5924 70.8917C14.82 72.2297 15.2784 73.9404 16.6163 74.7129Z" fill="#FF68B4"/>
<path d="M41.2685 104.766L42.2063 105.307C43.5442 106.08 45.255 105.621 46.0274 104.283L46.5688 103.346C47.3413 102.008 46.8829 100.297 45.545 99.5246L44.6072 98.9831C43.2693 98.2107 41.5585 98.6691 40.7861 100.007L40.2447 100.945C39.4722 102.283 39.9306 103.993 41.2685 104.766Z" fill="#FAA82D"/>
<path d="M109.382 123.088L110.319 123.629C111.657 124.402 113.368 123.943 114.14 122.605L114.682 121.668C115.454 120.33 114.996 118.619 113.658 117.846L112.72 117.305C111.382 116.533 109.672 116.991 108.899 118.329L108.358 119.267C107.585 120.605 108.044 122.315 109.382 123.088Z" fill="#00AEFF"/>
<path d="M28.1503 119.994L31.5998 121.985C32.9377 122.758 34.6485 122.299 35.421 120.961L37.4126 117.512C38.185 116.174 37.7266 114.463 36.3887 113.691L32.9392 111.699C31.6012 110.927 29.8905 111.385 29.118 112.723L27.1264 116.172C26.354 117.51 26.8124 119.221 28.1503 119.994Z" fill="#00AEFF"/>
<path d="M81.3335 119.137L84.7831 121.129C86.121 121.901 87.8318 121.443 88.6042 120.105L90.5958 116.655C91.3682 115.318 90.9098 113.607 89.5719 112.834L86.1224 110.843C84.7845 110.07 83.0737 110.529 82.3012 111.867L80.3096 115.316C79.5372 116.654 79.9956 118.365 81.3335 119.137Z" fill="#FF68B4"/>
<path d="M123.303 52.5766C124.485 52.2586 125.417 51.2531 125.572 49.9555C125.77 48.2797 124.523 46.7715 122.852 46.5266C119.079 45.9637 112.333 44.5586 109.957 43.1148C109.695 42.9559 109.506 42.8098 109.368 42.6895C109.57 42.5992 109.875 42.5305 110.219 42.4402C113.446 41.5981 119.457 40.0383 121.696 36.1926C122.573 34.6887 122.796 33 122.341 31.3113C121.112 26.7266 116.467 26.0262 113.695 25.6051C113.068 25.5106 112.217 25.3816 111.624 25.227C112.015 24.7414 112.651 24.1055 113.12 23.6371C115.371 21.3898 118.77 17.9953 117.399 12.8734C116.381 9.0793 113.644 7.39493 110.877 6.92227C108.681 6.54415 106.829 8.57657 107.396 10.7336C107.697 11.8809 108.634 12.7617 109.807 12.9723C110.52 13.0969 111.173 13.5008 111.435 14.4762C111.839 15.9844 110.881 17.1488 108.758 19.2715C106.82 21.2051 104.414 23.6113 105.325 27.0145C106.322 30.7441 110.206 31.3285 112.771 31.7152C114.709 32.0074 116.205 32.2824 116.377 32.9141C116.398 32.9871 116.394 33.0215 116.394 33.0215C116.364 33.1633 115.852 33.8809 113.953 34.7488C112.161 35.5652 110.056 36.1109 108.664 36.4762C108.436 36.5363 108.225 36.5879 108.045 36.6395C105.334 37.3656 103.353 39.4024 103.005 41.8258C102.833 43.0117 102.859 46.0324 106.743 48.4C110.988 50.9867 120.931 52.4992 122.053 52.6625C122.482 52.727 122.904 52.6969 123.299 52.5895L123.303 52.5766Z" fill="#00AEFF"/>
<path d="M37.847 148.444C37.9372 148.423 38.0231 148.393 38.1091 148.363C39.7118 147.778 40.5368 146.004 39.9524 144.405C38.8224 141.277 37.6837 134.999 40.047 133.972C41.4606 133.358 42.8614 134.38 45.5169 136.688C47.9274 138.785 50.931 141.397 54.6606 140.396C56.4352 139.919 58.6224 138.394 58.9661 133.826C59.1337 131.592 58.8759 128.966 58.6438 126.646C58.6181 126.367 58.588 126.062 58.5579 125.748C59.5032 126.745 60.47 127.914 61.3337 128.962C64.6294 132.95 68.0325 137.075 72.4712 135.889C75.2771 135.137 76.695 133.461 77.3911 132.185C77.9282 131.201 78.1989 130.17 78.3106 129.203C78.5599 127.029 76.4673 125.331 74.3876 125.997L74.2157 126.053C73.0685 126.418 72.2821 127.441 72.136 128.636C72.106 128.868 72.0544 129.078 71.9685 129.237C71.8997 129.357 71.7235 129.675 70.963 129.899C69.906 129.641 67.5298 126.762 66.0989 125.03C63.5165 121.902 60.8438 118.667 57.561 117.588C56.2419 117.154 54.897 117.373 53.8786 118.194C51.7774 119.879 52.0653 122.818 52.5079 127.261C52.697 129.155 53.0665 132.881 52.6927 134.372C51.8935 134.05 50.3724 132.726 49.5731 132.034C46.8489 129.663 42.7282 126.079 37.5892 128.313C35.4106 129.259 31.87 131.983 32.6005 139.584C32.9485 143.189 34.1044 146.39 34.156 146.523C34.7102 148.04 36.3259 148.857 37.8513 148.448L37.847 148.444Z" fill="#FF68B4"/>
<path d="M68.8016 80.7812C69.6953 81.0777 69.5148 82.3969 68.5738 82.4484C64.2297 82.689 56.5598 83.5097 46.5309 86.1996C32.8238 89.8734 28.1832 94.9008 27.8824 99.1289C27.7879 100.457 26.8211 101.561 25.532 101.905C23.4824 102.455 21.4457 100.882 21.5188 98.7637C21.6305 95.614 23.1688 91.0336 29.6184 86.5519C39.9008 79.4105 57.084 76.8969 68.8016 80.7812Z" fill="#00AEFF"/>
<path d="M80.9617 58.4848C81.718 58.9102 82.5559 58.068 82.1262 57.316C80.3129 54.1363 77.1719 48.1422 75.5821 42.2082C73.5496 34.6285 76.493 29.3949 82.1477 26.907C83.5785 26.2797 84.3348 24.6985 83.9309 23.1902C83.4153 21.2695 81.2797 20.2813 79.4922 21.1535C75.7625 22.9754 70.2367 26.7524 68.9735 33.4942C67.2117 42.8914 73.1801 54.1277 80.966 58.4891L80.9617 58.4848Z" fill="#FF68B4"/>
<path d="M75.7883 69.6137C76.7251 69.8242 77.2493 68.5824 76.4415 68.0582C72.7633 65.6863 65.4758 62.5238 52.6067 62.3133C46.879 62.2187 42.7797 62.5023 44.679 57.8187C46.5825 53.1351 48.7825 47.8586 45.2075 43.8281C41.6325 39.7976 33.4899 44.3695 30.5207 46.0324C27.5559 47.691 25.2915 48.5547 24.6254 48.7309C23.9594 48.907 25.0208 46.793 25.3 44.782C25.5793 42.7711 25.1926 35.4406 20.4145 33.666C16.4957 32.2094 12.1731 32.5058 7.23598 33.6016C5.40122 34.0098 4.27544 35.8703 4.76098 37.6836C5.22934 39.4367 7.02544 40.4851 8.78286 40.0254C12.3922 39.0801 17.9266 38.1648 18.7215 41.1426C19.7141 44.8465 16.8739 47.5449 18.5239 52.1941C20.1782 56.8433 25.9231 55.8637 29.5196 54.0848C33.1161 52.3058 39.2176 49.0402 40.7043 48.6965C40.7043 48.6965 40.7172 51.5969 38.1219 56.925C35.5266 62.2531 39.8793 67.8605 44.8508 68.359C49.3239 68.8101 64.0622 67.0012 75.7797 69.6094L75.7883 69.6137Z" fill="#FAA82D"/>
<path d="M136.383 111.581C133.336 109.824 132.292 105.927 134.05 102.88C135.807 99.8336 139.704 98.7895 142.751 100.547" fill="white"/>
<path d="M180.757 57.0797C178.832 56.5641 179.498 54.0977 181.418 54.6133C183.343 55.1289 182.677 57.5953 180.757 57.0797ZM172.326 60.6504C169.125 59.791 168.021 63.9031 171.226 64.7582C174.427 65.6176 175.532 61.5055 172.326 60.6504ZM161.206 63.2844C158.005 62.425 156.9 66.5371 160.106 67.3922C163.307 68.2516 164.411 64.1395 161.206 63.2844ZM165.43 50.0543C164.472 49.7965 164.136 51.0297 165.099 51.2875C166.057 51.5453 166.392 50.3121 165.43 50.0543ZM139.451 55.7477C137.852 55.318 137.298 57.3719 138.901 57.8016C140.499 58.2313 141.054 56.1773 139.451 55.7477ZM190.863 67.534C189.905 67.2762 189.57 68.5094 190.532 68.7672C191.49 69.025 191.826 67.7918 190.863 67.534ZM150.889 46.8617C147.688 46.0023 146.584 50.1145 149.789 50.9695C152.99 51.8289 154.095 47.7168 150.889 46.8617Z" fill="#00AEFF"/>
<path d="M151.551 59.168C149.626 58.6523 150.292 56.1859 152.213 56.7016C154.138 57.2172 153.472 59.6836 151.551 59.168ZM182.716 65.8109C180.795 65.2953 180.134 67.7617 182.054 68.2773C183.975 68.793 184.637 66.3266 182.716 65.8109ZM158.52 51.3176C156.922 50.8879 156.368 52.9418 157.97 53.3715C159.569 53.8012 160.123 51.7473 158.52 51.3176ZM172.507 70.0992C171.549 69.8414 171.213 71.0746 172.176 71.3324C173.134 71.5902 173.469 70.357 172.507 70.0992ZM150.717 66.0644C149.119 65.6348 148.565 67.6887 150.167 68.1183C151.766 68.548 152.32 66.4941 150.717 66.0644ZM174.861 51.1715C172.941 50.6558 172.279 53.1223 174.2 53.6379C176.12 54.1535 176.782 51.6871 174.861 51.1715Z" fill="#FAA82D"/>
<path d="M167.462 55.5715C165.537 55.0559 166.203 52.5894 168.124 53.1051C170.049 53.6207 169.383 56.0871 167.462 55.5715ZM143.679 52.641C142.721 52.3832 142.386 53.6164 143.348 53.8742C144.306 54.132 144.642 52.8988 143.679 52.641ZM146.691 61.6816C145.733 61.4238 145.398 62.657 146.36 62.9148C147.318 63.1727 147.654 61.9394 146.691 61.6816ZM165.297 70.8383C163.058 70.2367 162.28 73.1156 164.527 73.7129C166.766 74.3145 167.544 71.4355 165.297 70.8383ZM181.285 70.3227C179.687 69.893 179.133 71.9469 180.735 72.3766C182.334 72.8062 182.888 70.7523 181.285 70.3227ZM160.789 47.0894C159.509 46.7457 159.066 48.3914 160.347 48.7352C161.627 49.0789 162.07 47.4332 160.789 47.0894ZM186.828 60.616C185.548 60.2723 185.105 61.918 186.386 62.2617C187.666 62.6055 188.109 60.9598 186.828 60.616Z" fill="#FF0080"/>
<path d="M136.378 113.3C136.086 113.3 135.79 113.227 135.519 113.068C131.656 110.838 130.328 105.884 132.559 102.021C133.637 100.152 135.382 98.8109 137.47 98.2523C139.558 97.6938 141.737 97.9816 143.606 99.0602C144.426 99.5328 144.71 100.586 144.233 101.406C143.76 102.227 142.708 102.511 141.887 102.034C140.813 101.411 139.558 101.247 138.359 101.57C137.16 101.892 136.155 102.661 135.536 103.735C134.256 105.957 135.016 108.805 137.238 110.086C138.059 110.559 138.342 111.611 137.865 112.432C137.547 112.982 136.967 113.291 136.374 113.291L136.378 113.3Z" fill="#4E342E"/>
</svg>
