<?xml version="1.0" encoding="UTF-8"?>
<svg id="Layer_1" data-name="Layer 1" xmlns="http://www.w3.org/2000/svg" viewBox="0 0 512 512">
  <defs>
    <style>
      .cls-1 {
        fill: #00aeff;
      }

      .cls-2 {
        fill: #fff;
      }

      .cls-3 {
        fill: #4e342e;
      }

      .cls-4 {
        fill: #f8a73c;
      }

      .cls-5 {
        fill: #bf6d00;
      }

      .cls-6 {
        fill: #fdbe00;
      }

      .cls-7 {
        fill: #9e00ff;
      }

      .cls-8 {
        fill: #ff0080;
      }

      .cls-9 {
        fill: none;
        opacity: .25;
      }

      .cls-10 {
        fill: #faa82d;
      }

      .cls-11 {
        fill: #311b11;
      }

      .cls-12 {
        fill: #fcfcfc;
      }
    </style>
  </defs>
  <g>
    <g class="cls-9">
      <ellipse cx="363.27" cy="446.83" rx="98.35" ry="49.17"/>
    </g>
    <path class="cls-5" d="m400.98,428.23s-6.37,18.6-37.71,18.6-37.71-18.6-37.71-18.6l-43.65-111.57h162.71l-43.65,111.57Z"/>
    <path class="cls-4" d="m460.84,261.24c.01-.51.05-1.01.05-1.53,0-40.44-43.71-73.22-97.62-73.22s-97.62,32.78-97.62,73.22c0,.51.04,1.02.05,1.53-.01.51-.05,1.01-.05,1.53s.04,1.02.05,1.53c-.01.51-.05,1.01-.05,1.53s.04,1.02.05,1.53c-.01.51-.05,1.01-.05,1.53s.04,1.02.05,1.53c-.01.51-.05,1.01-.05,1.53s.04,1.02.05,1.53c-.01.51-.05,1.01-.05,1.53s.04,1.02.05,1.53c-.01.51-.05,1.01-.05,1.53s.04,1.02.05,1.53c-.01.51-.05,1.01-.05,1.53s.04,1.02.05,1.53c-.01.51-.05,1.01-.05,1.53s.04,1.02.05,1.53c-.01.51-.05,1.01-.05,1.53s.04,1.02.05,1.53c-.01.51-.05,1.01-.05,1.53s.04,1.02.05,1.53c-.01.51-.05,1.01-.05,1.53s.04,1.02.05,1.53c-.01.51-.05,1.01-.05,1.53s.04,1.02.05,1.53c-.01.51-.05,1.01-.05,1.53s.04,1.02.05,1.53c-.01.51-.05,1.01-.05,1.53s.04,1.02.05,1.53c-.01.51-.05,1.01-.05,1.53s.04,1.02.05,1.53c-.01.51-.05,1.01-.05,1.53,0,40.44,43.71,73.22,97.62,73.22s97.62-32.78,97.62-73.22c0-.51-.04-1.02-.05-1.53.01-.51.05-1.01.05-1.53s-.04-1.02-.05-1.53c.01-.51.05-1.01.05-1.53s-.04-1.02-.05-1.53c.01-.51.05-1.01.05-1.53s-.04-1.02-.05-1.53c.01-.51.05-1.01.05-1.53s-.04-1.02-.05-1.53c.01-.51.05-1.01.05-1.53s-.04-1.02-.05-1.53c.01-.51.05-1.01.05-1.53s-.04-1.02-.05-1.53c.01-.51.05-1.01.05-1.53s-.04-1.02-.05-1.53c.01-.51.05-1.01.05-1.53s-.04-1.02-.05-1.53c.01-.51.05-1.01.05-1.53s-.04-1.02-.05-1.53c.01-.51.05-1.01.05-1.53s-.04-1.02-.05-1.53c.01-.51.05-1.01.05-1.53s-.04-1.02-.05-1.53c.01-.51.05-1.01.05-1.53s-.04-1.02-.05-1.53c.01-.51.05-1.01.05-1.53s-.04-1.02-.05-1.53c.01-.51.05-1.01.05-1.53s-.04-1.02-.05-1.53c.01-.51.05-1.01.05-1.53s-.04-1.02-.05-1.53Z"/>
    <ellipse class="cls-11" cx="363.27" cy="275.98" rx="70.51" ry="48.81"/>
    <path class="cls-12" d="m483.29,227.89c-3.57-1.93-5.63-5.89-5.23-9.93.37-3.71.56-7.46.56-11.27,0-63.71-51.64-115.35-115.35-115.35s-115.35,51.64-115.35,115.35c0,3.8.19,7.56.56,11.27.4,4.04-1.66,8-5.23,9.93-10.65,5.76-17.89,17.02-17.89,29.98,0,15.23,10.01,28.1,23.8,32.46,3.32,1.05,5.97,3.55,7.01,6.87,5.02,15.92,20.86,27.56,39.67,27.56,4.47,0,8.77-.66,12.81-1.87,4.09-1.23,8.45.05,11.11,3.4,9.71,12.22,25.57,20.18,43.5,20.18s33.79-7.96,43.5-20.18c2.66-3.34,7.02-4.63,11.11-3.4,4.03,1.21,8.34,1.87,12.81,1.87,18.81,0,34.66-11.64,39.67-27.56,1.05-3.32,3.7-5.82,7.01-6.87,13.79-4.35,23.8-17.22,23.8-32.46,0-12.96-7.24-24.22-17.89-29.98Z"/>
    <g>
      <ellipse class="cls-8" cx="392.73" cy="265.04" rx="10.01" ry="15.02" transform="translate(35.07 575.79) rotate(-75)"/>
      <ellipse class="cls-8" cx="249.47" cy="226.66" rx="10.01" ry="15.02" transform="translate(-34.03 408.97) rotate(-75)"/>
    </g>
    <g>
      <path class="cls-3" d="m317.14,205.24c-.82-10.22-8.57-19.01-19.28-21.88-6.07-1.63-12.35-1.16-17.84,1.29-4.9-7.93-9.84-19.19-9.32-31.88.74-18.03-29.38-18.61-27.02,7.28,1.28,14.08,12.81,23.24,23.95,28.87-6.38-1.02-14.18-3.45-20.51-9.1-9.63-8.58-23.59,7.8-8.22,18.23,9.16,6.21,20.63,2.96,29.08-1.21-.33.83-.62,1.67-.86,2.55-.66,2.46.8,4.99,3.26,5.65,2.46.66,4.99-.8,5.65-3.26.96-3.58,3.45-6.55,7.01-8.36,3.72-1.89,8.14-2.3,12.44-1.15,6.95,1.86,11.96,7.37,12.47,13.71.19,2.41,2.21,4.24,4.59,4.24.12,0,.25,0,.37-.02,2.54-.2,4.43-2.43,4.23-4.96Z"/>
      <path class="cls-3" d="m439.34,216.41c14.99-21.24-11.39-35.8-19.76-19.82-5.9,11.26-15.81,18.54-24.03,22.95-3.41-4.69-8.54-8.36-14.79-10.04-10.71-2.87-21.81.87-27.63,9.31-1.45,2.1-.92,4.97,1.18,6.41,2.09,1.45,4.97.92,6.41-1.18,3.61-5.24,10.71-7.5,17.66-5.64,8.69,2.33,14.11,10.39,12.09,17.96-.66,2.46.8,4.99,3.26,5.65.4.11.8.16,1.2.16,2.04,0,3.9-1.36,4.45-3.42.24-.88.41-1.76.53-2.64,5.23,7.83,13.54,16.39,24.58,15.59,18.53-1.35,14.62-22.52,2-19.9-8.3,1.72-16.27-.07-22.31-2.38,12.46.69,27.03-1.48,35.18-13.03Z"/>
    </g>
    <g>
      <g>
        <path class="cls-6" d="m217.66,104.58l101.32,131.83c5.48,7.13-.35,17.33-9.28,16.23l-166.69-20.61,74.65-127.45Z"/>
        <ellipse class="cls-3" cx="176.06" cy="165.59" rx="74.9" ry="30.66" transform="translate(-55.38 235.27) rotate(-60)"/>
        <g>
          <path class="cls-7" d="m267.77,218.54c6.76-11.71,10.14-24.38,9.72-36.1l19.6,25.51c-2.16,7.53-5.3,14.98-9.41,22.09-3.87,6.7-8.42,12.82-13.49,18.22l-31.6-3.91c9.87-5.56,18.69-14.56,25.18-25.81Z"/>
          <path class="cls-7" d="m179.96,234.58c17.32-7.66,32.91-22.36,43.9-41.4s15.92-39.88,13.9-58.71c-.17-1.57-.4-3.1-.66-4.6l22.8,29.67c-2.33,15.29-7.8,30.71-16.13,45.14-8.19,14.19-18.61,26.45-30.43,36.05l-37.21-4.6c1.27-.48,2.55-.98,3.83-1.55Z"/>
        </g>
      </g>
      <rect class="cls-8" x="130.25" y="49.61" width="15.54" height="15.54" rx="6.51" ry="6.51" transform="translate(228.85 176.09) rotate(-150)"/>
      <rect class="cls-10" x="209.85" y="28.28" width="15.54" height="15.54" rx="6.51" ry="6.51" transform="translate(388.06 176.09) rotate(-150)"/>
      <rect class="cls-8" x="287.76" y="146.55" width="15.54" height="15.54" rx="6.51" ry="6.51" transform="translate(474.3 435.73) rotate(-150)"/>
      <rect class="cls-1" x="127.43" y="96.6" width="15.54" height="15.54" rx="6.51" ry="6.51" transform="translate(200.1 262.37) rotate(-150)"/>
      <rect class="cls-8" x="35.87" y="160.01" width="15.54" height="15.54" rx="6.51" ry="6.51" transform="translate(-2.45 334.9) rotate(-150)"/>
      <rect class="cls-10" x="93.25" y="229.96" width="15.54" height="15.54" rx="6.51" ry="6.51" transform="translate(69.64 494.11) rotate(-150)"/>
      <rect class="cls-1" x="251.77" y="272.58" width="15.54" height="15.54" rx="6.51" ry="6.51" transform="translate(344.13 652.92) rotate(-150)"/>
      <rect class="cls-1" x="63.96" y="260.78" width="22.29" height="22.29" rx="6.51" ry="6.51" transform="translate(4.18 544.97) rotate(-150)"/>
      <rect class="cls-8" x="187.73" y="258.78" width="22.29" height="22.29" rx="6.51" ry="6.51" transform="translate(236.14 603.13) rotate(-150)"/>
      <path class="cls-1" d="m286.96,122.36c2.75-.74,4.92-3.08,5.28-6.1.46-3.9-2.44-7.41-6.33-7.98-8.78-1.31-24.48-4.58-30.01-7.94-.61-.37-1.05-.71-1.37-.99.47-.21,1.18-.37,1.98-.58,7.51-1.96,21.5-5.59,26.71-14.54,2.04-3.5,2.56-7.43,1.5-11.36-2.86-10.67-13.67-12.3-20.12-13.28-1.46-.22-3.44-.52-4.82-.88.91-1.13,2.39-2.61,3.48-3.7,5.24-5.23,13.15-13.13,9.96-25.05-2.37-8.83-8.74-12.75-15.18-13.85-5.11-.88-9.42,3.85-8.1,8.87h0c.7,2.67,2.88,4.72,5.61,5.21,1.66.29,3.18,1.23,3.79,3.5.94,3.51-1.29,6.22-6.23,11.16-4.51,4.5-10.11,10.1-7.99,18.02,2.32,8.68,11.36,10.04,17.33,10.94,4.51.68,7.99,1.32,8.39,2.79.05.17.04.25.04.25-.07.33-1.26,2-5.68,4.02-4.17,1.9-9.07,3.17-12.31,4.02-.53.14-1.02.26-1.44.38-6.31,1.69-10.92,6.43-11.73,12.07-.4,2.76-.34,9.79,8.7,15.3,9.88,6.02,33.02,9.54,35.63,9.92,1,.15,1.98.08,2.9-.17Z"/>
      <path class="cls-8" d="m88.08,345.47c.21-.05.41-.12.61-.19,3.73-1.36,5.65-5.49,4.29-9.21-2.63-7.28-5.28-21.89.22-24.28,3.29-1.43,6.55.95,12.73,6.32,5.61,4.88,12.6,10.96,21.28,8.63,4.13-1.11,9.22-4.66,10.02-15.29.39-5.2-.21-11.31-.75-16.71-.06-.65-.13-1.36-.2-2.09,2.2,2.32,4.45,5.04,6.46,7.48,7.67,9.28,15.59,18.88,25.92,16.12,6.53-1.75,9.83-5.65,11.45-8.62,1.25-2.29,1.88-4.69,2.14-6.94.58-5.06-4.29-9.01-9.13-7.46l-.4.13c-2.67.85-4.5,3.23-4.84,6.01-.07.54-.19,1.03-.39,1.4-.16.28-.57,1.02-2.34,1.54-2.46-.6-7.99-7.3-11.32-11.33-6.01-7.28-12.23-14.81-19.87-17.32-3.07-1.01-6.2-.5-8.57,1.41-4.89,3.92-4.22,10.76-3.19,21.1.44,4.41,1.3,13.08.43,16.55-1.86-.75-5.4-3.83-7.26-5.44-6.34-5.52-15.93-13.86-27.89-8.66-5.07,2.2-13.31,8.54-11.61,26.23.81,8.39,3.5,15.84,3.62,16.15,1.29,3.53,5.05,5.43,8.6,4.48Z"/>
      <path class="cls-1" d="m160.12,188c2.08.69,1.66,3.76-.53,3.88-10.11.56-27.96,2.47-51.3,8.73-31.9,8.55-42.7,20.25-43.4,30.09-.22,3.09-2.47,5.66-5.47,6.46h0c-4.77,1.28-9.51-2.38-9.34-7.31.26-7.33,3.84-17.99,18.85-28.42,23.93-16.62,63.92-22.47,91.19-13.43Z"/>
      <path class="cls-8" d="m188.42,136.11c1.76.99,3.71-.97,2.71-2.72-4.22-7.4-11.53-21.35-15.23-35.16-4.73-17.64,2.12-29.82,15.28-35.61,3.33-1.46,5.09-5.14,4.15-8.65h0c-1.2-4.47-6.17-6.77-10.33-4.74-8.68,4.24-21.54,13.03-24.48,28.72-4.1,21.87,9.79,48.02,27.91,58.17Z"/>
      <path class="cls-10" d="m176.38,162.01c2.18.49,3.4-2.4,1.52-3.62-8.56-5.52-25.52-12.88-55.47-13.37-13.33-.22-22.87.44-18.45-10.46,4.43-10.9,9.55-23.18,1.23-32.56-8.32-9.38-27.27,1.26-34.18,5.13-6.9,3.86-12.17,5.87-13.72,6.28s.92-4.51,1.57-9.19-.25-21.74-11.37-25.87c-9.12-3.39-19.18-2.7-30.67-.15-4.27.95-6.89,5.28-5.76,9.5h0c1.09,4.08,5.27,6.52,9.36,5.45,8.4-2.2,21.28-4.33,23.13,2.6,2.31,8.62-4.3,14.9-.46,25.72,3.85,10.82,17.22,8.54,25.59,4.4,8.37-4.14,22.57-11.74,26.03-12.54,0,0,.03,6.75-6.01,19.15-6.04,12.4,4.09,25.45,15.66,26.61,10.41,1.05,44.71-3.16,71.98,2.91Z"/>
    </g>
    <path class="cls-2" d="m317.4,259.68c-7.09-4.09-9.52-13.16-5.43-20.25,4.09-7.09,13.16-9.52,20.25-5.43"/>
    <g>
      <path class="cls-1" d="m420.67,132.84c-4.48-1.2-2.93-6.94,1.54-5.74,4.48,1.2,2.93,6.94-1.54,5.74Zm-19.62,8.31c-7.45-2-10.02,7.57-2.56,9.56,7.45,2,10.02-7.57,2.56-9.56Zm-25.88,6.13c-7.45-2-10.02,7.57-2.56,9.56,7.45,2,10.02-7.57,2.56-9.56Zm9.83-30.79c-2.23-.6-3.01,2.27-.77,2.87,2.23.6,3.01-2.27.77-2.87Zm-60.46,13.25c-3.72-1-5.01,3.78-1.28,4.78,3.72,1,5.01-3.78,1.28-4.78Zm119.65,27.43c-2.23-.6-3.01,2.27-.77,2.87,2.23.6,3.01-2.27.77-2.87Zm-93.03-48.11c-7.45-2-10.02,7.57-2.56,9.56,7.45,2,10.02-7.57,2.56-9.56Z"/>
      <path class="cls-10" d="m352.7,137.7c-4.48-1.2-2.93-6.94,1.54-5.74,4.48,1.2,2.93,6.94-1.54,5.74Zm72.53,15.46c-4.47-1.2-6.01,4.54-1.54,5.74,4.47,1.2,6.01-4.54,1.54-5.74Zm-56.31-33.73c-3.72-1-5.01,3.78-1.28,4.78,3.72,1,5.01-3.78,1.28-4.78Zm32.55,43.71c-2.23-.6-3.01,2.27-.77,2.87,2.23.6,3.01-2.27.77-2.87Zm-50.71-9.39c-3.72-1-5.01,3.78-1.28,4.78,3.72,1,5.01-3.78,1.28-4.78Zm56.19-34.66c-4.47-1.2-6.01,4.54-1.54,5.74,4.47,1.2,6.01-4.54,1.54-5.74Z"/>
      <path class="cls-8" d="m389.73,129.33c-4.48-1.2-2.93-6.94,1.54-5.74,4.48,1.2,2.93,6.94-1.54,5.74Zm-55.35-6.82c-2.23-.6-3.01,2.27-.77,2.87,2.23.6,3.01-2.27.77-2.87Zm7.01,21.04c-2.23-.6-3.01,2.27-.77,2.87,2.23.6,3.01-2.27.77-2.87Zm43.3,21.31c-5.21-1.4-7.02,5.3-1.79,6.69,5.21,1.4,7.02-5.3,1.79-6.69Zm37.21-1.2c-3.72-1-5.01,3.78-1.28,4.78,3.72,1,5.01-3.78,1.28-4.78Zm-47.7-54.07c-2.98-.8-4.01,3.03-1.03,3.83,2.98.8,4.01-3.03,1.03-3.83Zm60.6,31.48c-2.98-.8-4.01,3.03-1.03,3.83,2.98.8,4.01-3.03,1.03-3.83Z"/>
    </g>
  </g>
  <path class="cls-3" d="m317.39,263.68c-.68,0-1.37-.17-2-.54-8.99-5.19-12.08-16.72-6.89-25.71,2.51-4.35,6.57-7.47,11.43-8.77,4.86-1.3,9.93-.63,14.28,1.88,1.91,1.1,2.57,3.55,1.46,5.46-1.1,1.91-3.55,2.57-5.46,1.46-2.5-1.45-5.42-1.83-8.21-1.08-2.79.75-5.13,2.54-6.57,5.04-2.98,5.17-1.21,11.8,3.96,14.78,1.91,1.1,2.57,3.55,1.46,5.46-.74,1.28-2.09,2-3.47,2Z"/>
</svg>