<svg width="300" height="180" viewBox="0 0 300 180" fill="none" xmlns="http://www.w3.org/2000/svg">
<g clip-path="url(#clip0_68_586)">
<rect width="300" height="180" rx="16" fill="#E60073"/>
<path fill-rule="evenodd" clip-rule="evenodd" d="M140.199 151.517C138.813 149.258 138.95 146.34 140.493 144.187C141.914 142.206 143.246 140.139 144.489 137.987C165.327 101.893 153.032 55.79 117.022 35C81.013 14.21 34.9386 26.6132 14.1051 62.6979C12.8622 64.8507 11.7382 67.0374 10.7332 69.2581C9.63532 71.6797 7.18183 73.2493 4.53252 73.178C-3.37074 72.9669 -11.142 76.987 -15.3818 84.3307C-20.3634 92.9591 -18.9181 103.516 -12.5472 110.481C-11.0087 112.156 -10.3324 114.445 -10.826 116.66C-13.2012 127.314 -8.05039 139.072 2.5844 145.212C5.1132 146.672 7.76223 147.704 10.4358 148.333C13.149 148.974 15.1962 151.128 15.6019 153.885C17.0982 163.974 23.4555 173.662 33.588 179.512C43.7205 185.362 55.2899 186.024 64.7748 182.275C67.3656 181.248 70.2547 181.944 72.1661 183.973C74.0478 185.974 76.2658 187.752 78.7946 189.212C89.4294 195.352 102.188 193.934 110.227 186.55C111.903 185.006 114.219 184.456 116.439 184.951C125.656 186.986 135.521 182.959 140.503 174.331C144.743 166.987 144.339 158.247 140.204 151.508L140.199 151.517ZM18.7774 106.425C13.9969 103.665 11.6106 98.8384 13.4599 95.6353C15.3092 92.4322 20.6825 92.0854 25.463 94.8454C30.2434 97.6054 32.6297 102.432 30.7804 105.635C28.9311 108.838 23.5578 109.185 18.7774 106.425ZM36.4673 112.865C31.453 109.97 32.0923 99.4831 37.8958 89.4311C43.6993 79.3791 52.4619 73.5818 57.4762 76.4768C62.4905 79.3718 61.8512 89.8591 56.0477 99.9111C50.2442 109.963 41.4816 115.76 36.4673 112.865ZM62.7409 129.018C56.263 125.278 54.0447 116.96 57.7934 110.467C58.6454 108.992 60.5321 108.484 62.0043 109.334C63.4766 110.184 63.9801 112.072 63.1281 113.547C61.0834 117.089 62.2947 121.631 65.8281 123.671C69.3614 125.711 73.9005 124.489 75.9453 120.947C76.7973 119.472 78.684 118.964 80.1562 119.814C81.6285 120.664 82.132 122.552 81.28 124.027C77.5313 130.52 69.2187 132.758 62.7409 129.018ZM89.8664 143.695C84.8521 140.8 85.4914 130.313 91.295 120.261C97.0985 110.209 105.861 104.412 110.875 107.307C115.89 110.202 115.25 120.689 109.447 130.741C103.643 140.793 94.8807 146.59 89.8664 143.695ZM104.289 155.795C99.5083 153.035 97.122 148.208 98.9713 145.005C100.821 141.802 106.194 141.455 110.974 144.215C115.755 146.975 118.141 151.802 116.292 155.005C114.442 158.208 109.069 158.555 104.289 155.795ZM73.8394 197.775C71.1235 196.206 68.6271 194.336 66.3936 192.191C54.2559 196.295 40.2981 194.81 28.6414 188.08C16.9847 181.35 8.71525 170.013 6.20488 157.441C3.22728 156.579 0.357176 155.35 -2.36214 153.78C-9.29035 149.78 -14.683 143.9 -17.9653 136.785C-17.9896 136.736 -18.0111 136.682 -18.0356 136.624C-18.0433 136.606 -18.0512 136.587 -18.0597 136.569C-20.7253 159.266 -5.61942 185.522 21.1754 200.992C47.9702 216.462 78.2614 216.416 96.5847 202.759C96.5253 202.769 96.4688 202.774 96.4067 202.78L96.35 202.785C88.5591 203.505 80.7741 201.776 73.8394 197.775ZM-18.6596 216.268L-15.2886 180.749C-7.53318 192.137 3.29556 202.081 16.2426 209.556C29.1897 217.031 43.2209 221.428 56.9553 222.459L27.8806 243.138C27.8806 243.138 18.2807 250.686 -1.05767 239.521C-20.396 228.356 -18.6596 216.268 -18.6596 216.268Z" fill="black" fill-opacity="0.1"/>
<path fill-rule="evenodd" clip-rule="evenodd" d="M270.807 87.5429C270.056 86.3187 270.13 84.737 270.967 83.57C271.737 82.4965 272.458 81.3763 273.132 80.2095C284.427 60.6467 277.762 35.6585 258.245 24.3902C238.728 13.122 213.755 19.8446 202.463 39.4027C201.79 40.5695 201.181 41.7547 200.636 42.9583C200.041 44.2708 198.711 45.1216 197.275 45.0829C192.991 44.9685 188.779 47.1474 186.481 51.1277C183.781 55.8044 184.565 61.5261 188.018 65.3013C188.852 66.2093 189.218 67.4498 188.951 68.6503C187.663 74.4248 190.455 80.798 196.219 84.1259C197.59 84.9172 199.026 85.4764 200.475 85.8175C201.945 86.1647 203.055 87.3322 203.275 88.8267C204.086 94.2947 207.531 99.5461 213.023 102.717C218.515 105.888 224.786 106.246 229.927 104.214C231.331 103.657 232.897 104.035 233.933 105.135C234.953 106.219 236.155 107.183 237.526 107.974C243.29 111.302 250.205 110.533 254.562 106.531C255.471 105.694 256.726 105.396 257.929 105.664C262.925 106.767 268.272 104.585 270.972 99.9082C273.27 95.9279 273.051 91.1907 270.81 87.5382L270.807 87.5429ZM204.996 63.1031C202.405 61.6071 201.111 58.991 202.114 57.2549C203.116 55.5188 206.028 55.3309 208.619 56.8268C211.211 58.3227 212.504 60.9389 211.502 62.675C210.499 64.4111 207.587 64.599 204.996 63.1031ZM214.584 66.5937C211.866 65.0246 212.213 59.3404 215.358 53.8922C218.504 48.444 223.253 45.3018 225.971 46.8709C228.689 48.44 228.342 54.1242 225.197 59.5724C222.051 65.0206 217.302 68.1628 214.584 66.5937ZM228.824 75.3486C225.313 73.3215 224.111 68.8133 226.143 65.294C226.605 64.4942 227.627 64.2189 228.425 64.6796C229.223 65.1403 229.496 66.1636 229.034 66.9634C227.926 68.883 228.582 71.3447 230.498 72.4504C232.413 73.5561 234.873 72.8938 235.981 70.9742C236.443 70.1744 237.466 69.8991 238.264 70.3598C239.061 70.8205 239.334 71.8438 238.873 72.6436C236.841 76.1629 232.335 77.3757 228.824 75.3486ZM243.527 83.3037C240.809 81.7346 241.155 76.0504 244.301 70.6022C247.446 65.154 252.196 62.0118 254.913 63.5809C257.631 65.15 257.285 70.8342 254.139 76.2824C250.994 81.7307 246.244 84.8728 243.527 83.3037ZM251.343 89.8619C248.752 88.366 247.459 85.7498 248.461 84.0137C249.464 82.2776 252.376 82.0897 254.967 83.5856C257.558 85.0815 258.852 87.6977 257.849 89.4338C256.847 91.1699 253.935 91.3578 251.343 89.8619ZM234.84 112.615C233.368 111.765 232.015 110.751 230.804 109.589C224.225 111.813 216.66 111.008 210.342 107.36C204.024 103.713 199.542 97.5682 198.181 90.7541C196.568 90.2866 195.012 89.6205 193.538 88.7696C189.783 86.6016 186.86 83.4148 185.081 79.5585C185.068 79.5317 185.056 79.5022 185.043 79.4709C185.039 79.4612 185.035 79.4512 185.03 79.4411C183.585 91.743 191.773 105.974 206.296 114.359C220.819 122.743 237.237 122.719 247.168 115.316C247.136 115.322 247.105 115.325 247.071 115.328L247.041 115.331C242.818 115.721 238.598 114.784 234.84 112.615ZM184.705 122.638L186.532 103.387C190.735 109.559 196.605 114.949 203.622 119C210.639 123.052 218.244 125.435 225.688 125.994L209.93 137.202C209.93 137.202 204.727 141.293 194.245 135.242C183.764 129.19 184.705 122.638 184.705 122.638Z" fill="white"/>
<path d="M54.0473 50.504L53.9833 55.624C58.9113 55.688 62.7513 56.84 65.5033 59.144C68.1912 61.384 69.5993 64.84 69.5993 69.448H59.5513C59.4233 67.4 59.0393 65.928 58.2713 64.968C57.5033 63.944 56.0953 63.368 54.0473 63.112V73.608C55.6473 73.992 56.8633 74.248 57.6313 74.44C58.3993 74.568 59.4873 74.888 60.9593 75.4C62.4313 75.848 63.5193 76.296 64.2873 76.68C65.0553 77.064 65.9513 77.64 66.9753 78.408C67.9993 79.112 68.7673 79.88 69.2793 80.712C69.7913 81.544 70.2393 82.568 70.6233 83.72C71.0073 84.872 71.1993 86.216 71.1993 87.688C71.1993 91.912 69.6632 95.304 66.7193 97.8C63.7113 100.296 59.4873 101.704 54.0473 102.088V107.656H50.3993V102.088C44.9593 101.96 40.7353 100.616 37.7273 97.992C34.7193 95.304 33.1193 91.464 32.8633 86.472H43.8713V87.048C43.8713 89.16 44.3833 90.824 45.5353 92.04C46.6233 93.192 48.2233 93.896 50.3353 94.024V82.376C48.4153 81.928 46.8153 81.544 45.6633 81.224C44.5113 80.904 43.1673 80.392 41.5033 79.688C39.9033 78.984 38.6233 78.216 37.7273 77.384C36.8313 76.488 36.0633 75.4 35.4233 73.992C34.7833 72.584 34.3993 70.92 34.3993 69.128C34.3993 64.712 35.9353 61.448 38.8793 59.272C41.8873 57.096 45.7273 55.88 50.3993 55.56V50.504H54.0473ZM50.3353 63.112C48.5433 63.112 47.0713 63.56 46.0473 64.456C45.0233 65.288 44.4473 66.44 44.4473 67.848C44.4473 68.36 44.5113 68.808 44.5753 69.192C44.7033 69.576 44.8953 69.96 45.1513 70.28C45.4713 70.6 45.7273 70.856 45.8553 71.048C45.9833 71.24 46.3673 71.432 46.8793 71.688C47.4553 71.88 47.7753 72.008 47.9033 72.072C48.0312 72.136 48.4792 72.264 49.1833 72.52C49.9513 72.712 50.3353 72.84 50.3353 72.84V63.112ZM53.9833 94.088C55.9673 94.024 57.5033 93.512 58.6553 92.552C59.8073 91.528 60.3833 90.248 60.3833 88.648C60.3833 86.92 59.8073 85.704 58.6553 85C57.5033 84.232 55.9673 83.656 53.9833 83.272V94.088ZM107.736 56.648V65.8H87.8958L86.5518 73.672C88.2798 72.584 89.8158 71.816 91.0958 71.368C92.3758 70.984 93.8478 70.728 95.5758 70.728C100.056 70.728 103.576 72.072 106.2 74.696C108.824 77.32 110.168 80.84 110.168 85.256C110.168 90.312 108.44 94.28 105.112 97.224C101.784 100.168 97.2398 101.64 91.5438 101.64C86.2318 101.64 82.0078 100.488 78.8718 98.056C75.7358 95.688 74.0078 92.104 73.7518 87.304H84.4398C84.5678 89.032 85.3358 90.376 86.6158 91.4C87.8958 92.424 89.6238 92.872 91.7998 92.872C94.0398 92.872 95.8318 92.232 97.2398 90.952C98.5838 89.672 99.2878 87.88 99.2878 85.64C99.2878 83.4 98.5838 81.608 97.3038 80.264C95.9598 78.92 94.1678 78.216 91.9918 78.216C88.9838 78.216 86.6798 79.368 85.1438 81.608H75.2238L79.5758 56.648H107.736ZM133.2 56.072C138.64 56.072 142.928 58.12 146.064 62.216C149.2 66.312 150.736 71.88 150.736 79.048C150.736 86.216 149.136 91.784 145.936 95.752C142.736 99.72 138.256 101.704 132.496 101.704C126.992 101.704 122.64 99.656 119.504 95.688C116.368 91.656 114.768 86.088 114.768 78.984C114.768 75.912 115.152 73.096 115.792 70.408C116.496 67.72 117.52 65.288 118.928 63.112C120.336 60.936 122.256 59.272 124.688 57.992C127.12 56.712 129.936 56.072 133.2 56.072ZM132.816 64.904C130.256 64.904 128.336 66.056 127.12 68.36C125.904 70.664 125.328 74.248 125.328 79.112C125.328 80.2 125.328 81.16 125.392 81.992C125.392 82.824 125.52 83.848 125.648 85.064C125.776 86.216 126.032 87.24 126.352 88.072C126.736 88.904 127.12 89.736 127.632 90.504C128.144 91.272 128.848 91.912 129.744 92.36C130.64 92.744 131.664 93 132.816 93C134.48 93 135.888 92.488 136.976 91.592C138.064 90.632 138.832 89.288 139.216 87.624C139.664 85.896 139.92 84.424 140.048 83.144C140.176 81.864 140.24 80.392 140.24 78.6C140.24 76.808 140.176 75.272 140.048 73.928C139.92 72.584 139.6 71.176 139.152 69.64C138.64 68.104 137.872 66.952 136.848 66.12C135.76 65.288 134.416 64.904 132.816 64.904Z" fill="white"/>
<path d="M49.0439 24.76L49.0199 34H46.6439L46.2839 32.056C45.0119 33.64 43.3079 34.408 41.1479 34.408C38.7719 34.408 36.8279 33.592 35.3399 31.936C33.8519 30.304 33.1079 28.168 33.1079 25.528C33.1079 22.888 33.8999 20.752 35.4599 19.072C37.0439 17.392 39.0599 16.552 41.5079 16.552C43.4759 16.552 45.1079 17.104 46.4519 18.208C47.7959 19.312 48.5879 20.752 48.8039 22.528H45.1799C45.0119 21.64 44.6039 20.944 43.9319 20.44C43.2839 19.96 42.4679 19.696 41.4839 19.696C40.0439 19.696 38.9399 20.224 38.1239 21.256C37.3079 22.288 36.8999 23.704 36.8999 25.528C36.8999 27.4 37.3079 28.84 38.1239 29.872C38.9399 30.904 40.1159 31.408 41.6039 31.408C42.7559 31.408 43.7159 31.072 44.4839 30.352C45.2279 29.632 45.6359 28.696 45.6839 27.544H41.8679V24.76H49.0439ZM55.1828 16.912V19.792H51.7748V16.912H55.1828ZM55.1828 21.616V34H51.7748V21.616H55.1828ZM64.6103 16.912V19.408C63.8903 19.384 63.5303 19.36 63.4823 19.36C62.8583 19.36 62.4503 19.456 62.2583 19.624C62.0663 19.792 61.9703 20.128 61.9703 20.632V21.616H64.3943V23.92H61.9943V34H58.5863V23.92H56.5703V21.616H58.5863V20.968C58.5863 19.528 58.8983 18.472 59.5703 17.824C60.2183 17.176 61.2983 16.84 62.8343 16.84C63.0023 16.84 63.1943 16.864 63.3863 16.864C63.5783 16.864 63.8183 16.888 64.0583 16.888C64.2983 16.912 64.4663 16.912 64.6103 16.912ZM72.6745 21.616V23.944H70.1545V29.776C70.1545 30.136 70.1545 30.4 70.1785 30.568C70.1785 30.736 70.2505 30.904 70.3465 31.096C70.4425 31.264 70.5865 31.384 70.7785 31.432C70.9705 31.48 71.2585 31.504 71.6425 31.504C72.0505 31.504 72.3865 31.504 72.6745 31.456V34.048C71.8345 34.12 71.1385 34.144 70.6105 34.144C69.1225 34.144 68.0905 33.904 67.5625 33.376C67.0345 32.848 66.7705 31.84 66.7705 30.352V23.92H64.7065V21.616H66.7705V17.872H70.1545V21.616H72.6745ZM96.5997 27.4C96.4077 29.56 95.6397 31.264 94.3437 32.536C93.0237 33.784 91.2237 34.432 88.9437 34.432C86.4477 34.432 84.4557 33.592 82.9437 31.96C81.4317 30.328 80.6877 28.144 80.6877 25.456C80.6877 22.888 81.4317 20.752 82.9677 19.072C84.5037 17.368 86.5437 16.528 89.0877 16.528C91.1037 16.528 92.8077 17.104 94.1997 18.256C95.5677 19.408 96.3357 20.872 96.4797 22.648H92.8077C92.6157 21.688 92.1837 20.968 91.5117 20.44C90.8397 19.912 90.0237 19.672 89.0157 19.672C87.9597 19.672 87.0957 19.96 86.3757 20.536C85.6557 21.112 85.1757 21.832 84.8877 22.672C84.5997 23.536 84.4557 24.448 84.4557 25.456C84.4557 27.232 84.8637 28.624 85.6797 29.68C86.4957 30.736 87.5757 31.24 88.9677 31.24C91.2477 31.24 92.5437 29.968 92.8797 27.4H96.5997ZM110.285 34H106.805C106.709 33.688 106.613 33.28 106.565 32.8C105.533 33.856 104.189 34.36 102.557 34.36C101.189 34.36 100.109 34.048 99.3168 33.376C98.5488 32.704 98.1408 31.792 98.1408 30.616C98.1408 30.088 98.2128 29.632 98.3568 29.224C98.5008 28.84 98.7168 28.504 99.0288 28.216C99.3408 27.952 99.6288 27.736 99.9168 27.544C100.205 27.376 100.589 27.232 101.069 27.112C101.573 27.016 101.981 26.92 102.269 26.872C102.581 26.824 103.013 26.752 103.565 26.68C104.765 26.536 105.557 26.368 105.965 26.176C106.373 26.008 106.589 25.672 106.589 25.192C106.589 24.088 105.845 23.536 104.357 23.536C103.565 23.536 102.989 23.68 102.629 23.968C102.245 24.256 102.005 24.736 101.909 25.432H98.7168C98.9088 22.648 100.805 21.256 104.453 21.256C108.053 21.256 109.853 22.6 109.853 25.288V30.64C109.853 32.224 109.997 33.328 110.285 34ZM106.541 27.976C106.157 28.216 105.341 28.456 104.141 28.648C103.133 28.792 102.485 29.008 102.173 29.248C101.837 29.536 101.645 29.968 101.645 30.496C101.645 31 101.813 31.408 102.149 31.696C102.485 31.984 102.941 32.128 103.517 32.128C104.429 32.128 105.173 31.888 105.725 31.408C106.277 30.928 106.541 30.232 106.541 29.368V27.976ZM120.586 21.4V24.544C120.106 24.448 119.65 24.4 119.266 24.4C118.138 24.4 117.322 24.76 116.794 25.48C116.266 26.2 116.002 27.136 116.002 28.336V34H112.594V21.616H115.834V23.896C116.65 22.192 117.97 21.328 119.842 21.328C119.986 21.328 120.25 21.352 120.586 21.4ZM133.524 34H130.284V32.416C129.468 33.712 128.22 34.336 126.54 34.336C124.836 34.336 123.468 33.76 122.46 32.56C121.452 31.36 120.948 29.776 120.948 27.76C120.948 25.816 121.428 24.256 122.412 23.08C123.396 21.88 124.716 21.304 126.372 21.304C127.14 21.304 127.86 21.448 128.532 21.784C129.204 22.096 129.756 22.552 130.14 23.152V16.912H133.524V34ZM130.236 27.784C130.236 26.584 129.996 25.672 129.468 25C128.94 24.328 128.22 23.992 127.308 23.992C126.372 23.992 125.652 24.328 125.148 25C124.62 25.672 124.38 26.584 124.38 27.784C124.38 28.984 124.62 29.92 125.148 30.592C125.676 31.264 126.396 31.624 127.308 31.624C128.244 31.624 128.964 31.288 129.468 30.616C129.996 29.944 130.236 29.008 130.236 27.784Z" fill="white"/>
<path d="M43.5363 163.296L45.7043 169H44.3923L43.9443 167.728H41.8243L41.3603 169H40.0803L42.2483 163.296H43.5363ZM43.6403 166.816L42.8883 164.696L42.1283 166.816H43.6403ZM52.6235 165L51.4315 165.008C51.3835 164.44 51.0235 164.16 50.3515 164.16C50.0635 164.16 49.8395 164.216 49.6795 164.328C49.5195 164.44 49.4315 164.6 49.4315 164.808C49.4315 164.872 49.4475 164.936 49.4635 164.992C49.4875 165.04 49.5275 165.088 49.5835 165.136C49.6475 165.184 49.7035 165.216 49.7595 165.248C49.8235 165.28 49.9115 165.312 50.0235 165.344C50.1355 165.376 50.2395 165.408 50.3355 165.44C50.4315 165.464 50.5595 165.496 50.7275 165.544C50.9035 165.584 51.0475 165.624 51.1755 165.664C51.7355 165.824 52.1595 166.024 52.4315 166.264C52.7035 166.504 52.8395 166.848 52.8395 167.296C52.8395 167.616 52.7755 167.904 52.6395 168.144C52.5115 168.384 52.3275 168.576 52.1035 168.72C51.8795 168.864 51.6315 168.968 51.3595 169.032C51.0875 169.096 50.7995 169.136 50.4955 169.136C49.7275 169.136 49.1195 168.952 48.6875 168.6C48.2555 168.248 48.0315 167.744 48.0235 167.104H49.2635C49.2875 167.816 49.7195 168.176 50.5515 168.176C50.8795 168.176 51.1355 168.104 51.3275 167.968C51.5195 167.832 51.6075 167.648 51.6075 167.416C51.6075 167.216 51.5275 167.072 51.3515 166.984C51.1755 166.888 50.8155 166.768 50.2555 166.608C50.2235 166.6 50.1995 166.592 50.1835 166.592C50.1675 166.584 50.1515 166.576 50.1195 166.568C50.0955 166.56 50.0715 166.552 50.0475 166.552C49.8555 166.496 49.7275 166.456 49.6475 166.432C49.5755 166.408 49.4555 166.368 49.2955 166.312C49.1355 166.248 49.0155 166.2 48.9435 166.152C48.8635 166.104 48.7755 166.032 48.6635 165.952C48.5515 165.864 48.4795 165.776 48.4315 165.68C48.3835 165.584 48.3355 165.472 48.2955 165.336C48.2555 165.2 48.2395 165.056 48.2395 164.896C48.2395 164.376 48.4395 163.96 48.8395 163.648C49.2395 163.344 49.7675 163.184 50.4315 163.184C51.0715 163.184 51.5915 163.336 51.9995 163.64C52.3995 163.944 52.6075 164.392 52.6235 165ZM53.0748 163.304H54.3308L55.2428 167.176L56.2428 163.304H57.4188L58.4028 167.224L59.3468 163.304H60.5788L59.0428 169H57.7948L56.8188 165.112L55.8588 169H54.5868L53.0748 163.304ZM65.4295 163.304V164.328H62.3975V165.568H65.1815V166.552H62.3975V167.952H65.4855V169H61.1575V163.304H65.4295ZM70.617 163.304V164.328H67.585V165.568H70.369V166.552H67.585V167.952H70.673V169H66.345V163.304H70.617ZM75.7645 163.304V164.368H74.0525V169H72.7965V164.368H71.0845V163.304H75.7645ZM83.7217 165.92L83.7137 169H82.9217L82.8017 168.352C82.3777 168.88 81.8097 169.136 81.0897 169.136C80.2977 169.136 79.6497 168.864 79.1537 168.312C78.6577 167.768 78.4097 167.056 78.4097 166.176C78.4097 165.296 78.6737 164.584 79.1937 164.024C79.7217 163.464 80.3937 163.184 81.2097 163.184C81.8657 163.184 82.4097 163.368 82.8577 163.736C83.3057 164.104 83.5697 164.584 83.6417 165.176H82.4337C82.3777 164.88 82.2417 164.648 82.0177 164.48C81.8017 164.32 81.5297 164.232 81.2017 164.232C80.7217 164.232 80.3537 164.408 80.0817 164.752C79.8097 165.096 79.6737 165.568 79.6737 166.176C79.6737 166.8 79.8097 167.28 80.0817 167.624C80.3537 167.968 80.7457 168.136 81.2417 168.136C81.6257 168.136 81.9457 168.024 82.2017 167.784C82.4497 167.544 82.5857 167.232 82.6017 166.848H81.3297V165.92H83.7217ZM85.976 163.304V169H84.72V163.304H85.976ZM91.0953 163.304V164.352H88.3273V165.672H90.7353V166.664H88.3273V169H87.0793V163.304H91.0953ZM96.0535 163.304V164.368H94.3415V169H93.0855V164.368H91.3735V163.304H96.0535ZM102.955 163.304V164.352H100.187V165.672H102.595V166.664H100.187V169H98.9387V163.304H102.955ZM106.257 163.168C107.089 163.168 107.761 163.448 108.273 164C108.785 164.552 109.049 165.272 109.049 166.16C109.049 167.056 108.785 167.776 108.273 168.32C107.761 168.864 107.081 169.136 106.249 169.136C105.401 169.136 104.721 168.864 104.209 168.32C103.689 167.776 103.433 167.056 103.433 166.16C103.433 165.264 103.689 164.536 104.201 163.992C104.713 163.448 105.401 163.168 106.257 163.168ZM106.241 164.192C105.769 164.192 105.393 164.376 105.113 164.728C104.833 165.08 104.689 165.552 104.689 166.144C104.689 166.752 104.833 167.232 105.105 167.584C105.385 167.928 105.769 168.104 106.257 168.112C106.729 168.112 107.105 167.936 107.377 167.584C107.649 167.232 107.785 166.752 107.785 166.144C107.785 165.544 107.641 165.072 107.369 164.72C107.089 164.368 106.713 164.192 106.241 164.192ZM109.955 163.304L112.787 163.312C113.347 163.312 113.811 163.44 114.171 163.712C114.523 163.976 114.707 164.384 114.707 164.928C114.707 165.256 114.627 165.544 114.467 165.792C114.307 166.04 114.083 166.216 113.803 166.328C114.291 166.424 114.571 166.872 114.643 167.656C114.643 167.68 114.643 167.76 114.659 167.904C114.667 168.04 114.675 168.152 114.691 168.232C114.699 168.312 114.715 168.416 114.731 168.536C114.747 168.648 114.771 168.752 114.803 168.832C114.835 168.912 114.867 168.968 114.915 169.008H113.619C113.571 168.92 113.539 168.808 113.523 168.68C113.499 168.552 113.483 168.384 113.467 168.176C113.451 167.968 113.443 167.856 113.443 167.832C113.395 167.432 113.299 167.16 113.139 167C112.979 166.848 112.707 166.768 112.307 166.768H111.195V169H109.955V163.304ZM111.195 164.296V165.872H112.379C112.723 165.872 112.995 165.816 113.187 165.704C113.379 165.592 113.483 165.384 113.483 165.064C113.483 164.76 113.387 164.56 113.195 164.456C113.003 164.344 112.755 164.296 112.435 164.296H111.195ZM122.763 163.304L120.643 166.808V169H119.411V166.784L117.283 163.304H118.707L120.035 165.584L121.379 163.304H122.763ZM125.819 163.168C126.651 163.168 127.323 163.448 127.835 164C128.347 164.552 128.611 165.272 128.611 166.16C128.611 167.056 128.347 167.776 127.835 168.32C127.323 168.864 126.643 169.136 125.811 169.136C124.963 169.136 124.283 168.864 123.771 168.32C123.251 167.776 122.995 167.056 122.995 166.16C122.995 165.264 123.251 164.536 123.763 163.992C124.275 163.448 124.963 163.168 125.819 163.168ZM125.803 164.192C125.331 164.192 124.955 164.376 124.675 164.728C124.395 165.08 124.251 165.552 124.251 166.144C124.251 166.752 124.395 167.232 124.667 167.584C124.947 167.928 125.331 168.104 125.819 168.112C126.291 168.112 126.667 167.936 126.939 167.584C127.211 167.232 127.347 166.752 127.347 166.144C127.347 165.544 127.203 165.072 126.931 164.72C126.651 164.368 126.275 164.192 125.803 164.192ZM134.318 163.304V166.728C134.318 167.544 134.118 168.152 133.726 168.536C133.334 168.92 132.726 169.112 131.894 169.112C131.046 169.112 130.43 168.92 130.03 168.528C129.63 168.136 129.438 167.528 129.438 166.712V163.304H130.686V166.712C130.686 167.176 130.774 167.52 130.95 167.744C131.126 167.968 131.446 168.08 131.91 168.08C132.358 168.08 132.662 167.968 132.822 167.744C132.982 167.52 133.07 167.176 133.07 166.712V163.304H134.318Z" fill="white"/>
<path fill-rule="evenodd" clip-rule="evenodd" d="M196.246 164.208C196.233 164.342 196.3 164.474 196.417 164.539V164.538C196.764 164.73 197 165.104 197 165.535C197 166.041 196.674 166.469 196.224 166.613C196.115 166.648 196.029 166.731 195.995 166.842C195.831 167.371 195.314 167.757 194.7 167.757C194.554 167.757 194.414 167.735 194.282 167.695C194.149 167.655 194.006 167.697 193.92 167.808C193.603 168.214 193.085 168.479 192.5 168.479C191.915 168.479 191.397 168.214 191.081 167.808C190.994 167.697 190.852 167.655 190.718 167.695C190.587 167.735 190.446 167.757 190.3 167.757C189.686 167.757 189.169 167.371 189.006 166.842C188.971 166.732 188.885 166.648 188.776 166.613C188.326 166.469 188 166.041 188 165.535C188 165.104 188.236 164.73 188.584 164.538C188.7 164.474 188.767 164.342 188.754 164.208C188.742 164.085 188.736 163.96 188.736 163.834C188.736 161.716 190.421 160 192.5 160C194.579 160 196.264 161.716 196.264 163.834C196.264 163.96 196.258 164.085 196.246 164.208ZM189.532 165.299C189.532 165.487 189.755 165.639 190.032 165.639C190.307 165.639 190.532 165.487 190.532 165.299C190.532 165.111 190.307 164.96 190.032 164.96C189.755 164.96 189.532 165.111 189.532 165.299ZM190.435 164.406C190.435 164.995 190.669 165.473 190.959 165.473C191.248 165.473 191.483 164.995 191.483 164.406C191.483 163.816 191.248 163.338 190.959 163.338C190.669 163.338 190.435 163.816 190.435 164.406ZM191.822 164.826C191.822 165.207 192.126 165.516 192.5 165.516C192.874 165.516 193.178 165.207 193.178 164.826C193.178 164.739 193.109 164.669 193.024 164.669C192.939 164.669 192.87 164.739 192.87 164.826C192.87 165.034 192.704 165.203 192.5 165.203C192.296 165.203 192.13 165.034 192.13 164.826C192.13 164.739 192.061 164.669 191.976 164.669C191.891 164.669 191.822 164.739 191.822 164.826ZM193.518 164.406C193.518 164.995 193.752 165.473 194.042 165.473C194.331 165.473 194.566 164.995 194.566 164.406C194.566 163.816 194.331 163.338 194.042 163.338C193.752 163.338 193.518 163.816 193.518 164.406ZM194.469 165.299C194.469 165.487 194.693 165.639 194.969 165.639C195.245 165.639 195.469 165.487 195.469 165.299C195.469 165.111 195.245 164.96 194.969 164.96C194.693 164.96 194.469 165.111 194.469 165.299ZM194.237 168.204C194.388 168.241 194.543 168.26 194.699 168.26C195.1 168.26 195.48 168.138 195.799 167.909L195.802 167.907C195.804 167.905 195.807 167.904 195.809 167.902C195.357 168.968 194.046 169.74 192.499 169.74C190.952 169.74 189.642 168.968 189.19 167.902L189.192 167.903C189.195 167.905 189.197 167.907 189.199 167.909C189.519 168.138 189.9 168.26 190.3 168.26C190.457 168.26 190.612 168.241 190.762 168.204C191.185 168.693 191.827 168.982 192.5 168.982C193.173 168.982 193.814 168.693 194.237 168.204ZM190.415 169.775L191.157 171.424C191.157 171.424 191.384 172 192.5 172C193.617 172 193.844 171.424 193.844 171.424L194.586 169.775C193.965 170.079 193.248 170.242 192.5 170.242C191.753 170.242 191.035 170.079 190.415 169.775ZM237.318 168.864C236.924 168.864 236.558 168.789 236.222 168.64C235.886 168.491 235.59 168.283 235.334 168.016C235.084 167.749 234.886 167.437 234.742 167.08C234.604 166.723 234.534 166.336 234.534 165.92C234.534 165.525 234.606 165.16 234.75 164.824C234.894 164.483 235.094 164.187 235.35 163.936C235.606 163.68 235.908 163.483 236.254 163.344C236.601 163.2 236.977 163.125 237.382 163.12C237.548 163.12 237.724 163.136 237.91 163.168C238.102 163.2 238.289 163.248 238.47 163.312C238.652 163.376 238.809 163.453 238.942 163.544C239.049 163.613 239.142 163.688 239.222 163.768C239.308 163.843 239.35 163.933 239.35 164.04C239.356 164.093 239.345 164.155 239.318 164.224C239.292 164.288 239.254 164.355 239.206 164.424C239.121 164.547 239.036 164.635 238.95 164.688C238.87 164.741 238.79 164.768 238.71 164.768C238.668 164.768 238.617 164.755 238.558 164.728C238.5 164.701 238.42 164.656 238.318 164.592C238.27 164.56 238.196 164.525 238.094 164.488C237.993 164.451 237.876 164.419 237.742 164.392C237.614 164.36 237.481 164.344 237.342 164.344C237.038 164.344 236.766 164.413 236.526 164.552C236.286 164.685 236.097 164.872 235.958 165.112C235.825 165.352 235.756 165.629 235.75 165.944C235.756 166.264 235.828 166.552 235.966 166.808C236.105 167.059 236.294 167.259 236.534 167.408C236.78 167.557 237.052 167.632 237.35 167.632C237.457 167.632 237.564 167.627 237.67 167.616C237.782 167.605 237.889 167.589 237.99 167.568C238.097 167.541 238.193 167.509 238.278 167.472V166.496H237.422C237.332 166.496 237.249 166.488 237.174 166.472C237.105 166.456 237.046 166.411 236.998 166.336C236.956 166.261 236.934 166.139 236.934 165.968C236.934 165.797 236.958 165.677 237.006 165.608C237.054 165.533 237.116 165.488 237.19 165.472C237.27 165.456 237.353 165.448 237.438 165.448H238.95C239.126 165.453 239.252 165.485 239.326 165.544C239.401 165.603 239.449 165.677 239.47 165.768C239.492 165.853 239.502 165.947 239.502 166.048V167.792C239.502 167.92 239.444 168.053 239.326 168.192C239.209 168.325 239.049 168.443 238.846 168.544C238.718 168.613 238.572 168.672 238.406 168.72C238.246 168.763 238.076 168.797 237.894 168.824C237.713 168.851 237.521 168.864 237.318 168.864ZM288.128 163.296C288.32 163.429 288.424 163.557 288.44 163.68C288.462 163.797 288.416 163.941 288.304 164.112L286.616 166.648V168.208C286.616 168.309 286.606 168.408 286.584 168.504C286.563 168.595 286.51 168.669 286.424 168.728C286.344 168.787 286.203 168.816 286 168.816C285.803 168.816 285.662 168.787 285.576 168.728C285.491 168.669 285.438 168.592 285.416 168.496C285.4 168.4 285.392 168.299 285.392 168.192V166.648L283.696 164.112C283.579 163.941 283.534 163.795 283.56 163.672C283.587 163.549 283.694 163.424 283.88 163.296C284.019 163.205 284.136 163.152 284.232 163.136C284.328 163.12 284.416 163.139 284.496 163.192C284.576 163.245 284.654 163.333 284.728 163.456L285.984 165.456L287.272 163.456C287.358 163.328 287.438 163.24 287.512 163.192C287.592 163.139 287.68 163.12 287.776 163.136C287.872 163.152 287.99 163.205 288.128 163.296ZM279.706 168.8C279.514 168.8 279.375 168.771 279.29 168.712C279.205 168.653 279.151 168.576 279.13 168.48C279.114 168.384 279.106 168.285 279.106 168.184V163.808C279.106 163.707 279.114 163.611 279.13 163.52C279.151 163.429 279.205 163.355 279.29 163.296C279.375 163.237 279.517 163.208 279.714 163.208H281.378C281.597 163.208 281.821 163.248 282.05 163.328C282.279 163.408 282.49 163.531 282.682 163.696C282.874 163.861 283.029 164.067 283.146 164.312C283.263 164.557 283.322 164.848 283.322 165.184C283.322 165.408 283.287 165.624 283.218 165.832C283.154 166.04 283.055 166.232 282.922 166.408C282.815 166.55 282.687 166.676 282.538 166.786L283.234 167.784C283.325 167.912 283.381 168.021 283.402 168.112C283.429 168.203 283.415 168.288 283.362 168.368C283.314 168.448 283.221 168.539 283.082 168.64C282.885 168.784 282.727 168.84 282.61 168.808C282.493 168.776 282.37 168.672 282.242 168.496L281.286 167.128H280.322V168.192C280.322 168.293 280.311 168.392 280.29 168.488C280.269 168.579 280.215 168.653 280.13 168.712C280.045 168.771 279.903 168.8 279.706 168.8ZM280.322 165.928H281.434C281.509 165.928 281.586 165.915 281.666 165.888C281.746 165.856 281.818 165.811 281.882 165.752C281.946 165.693 281.999 165.616 282.042 165.52C282.085 165.424 282.106 165.309 282.106 165.176C282.106 165.021 282.074 164.888 282.01 164.776C281.951 164.664 281.866 164.579 281.754 164.52C281.642 164.456 281.511 164.424 281.362 164.424H280.322V165.928ZM274.423 168.72C274.508 168.773 274.647 168.8 274.839 168.8H277.879C277.986 168.8 278.084 168.789 278.175 168.768C278.271 168.752 278.348 168.701 278.407 168.616C278.466 168.531 278.495 168.392 278.495 168.2C278.495 167.997 278.466 167.856 278.407 167.776C278.348 167.691 278.274 167.637 278.183 167.616C278.092 167.595 277.994 167.584 277.887 167.584H275.455V166.512H277.087C277.199 166.512 277.298 166.504 277.383 166.488C277.468 166.472 277.535 166.427 277.583 166.352C277.631 166.277 277.655 166.157 277.655 165.992C277.655 165.816 277.631 165.691 277.583 165.616C277.535 165.541 277.468 165.496 277.383 165.48C277.303 165.464 277.21 165.456 277.103 165.456H275.455V164.424H277.879C277.986 164.424 278.084 164.416 278.175 164.4C278.271 164.379 278.348 164.325 278.407 164.24C278.466 164.155 278.495 164.016 278.495 163.824C278.495 163.621 278.466 163.477 278.407 163.392C278.348 163.307 278.274 163.256 278.183 163.24C278.092 163.219 277.994 163.208 277.887 163.208H274.863C274.628 163.208 274.466 163.251 274.375 163.336C274.284 163.421 274.239 163.581 274.239 163.816V168.192C274.239 168.293 274.247 168.392 274.263 168.488C274.284 168.584 274.338 168.661 274.423 168.72ZM268.251 168.8C268.059 168.8 267.921 168.771 267.835 168.712C267.755 168.653 267.705 168.579 267.683 168.488C267.662 168.392 267.651 168.291 267.651 168.184V163.808C267.651 163.707 267.662 163.613 267.683 163.528C267.705 163.437 267.758 163.363 267.843 163.304C267.929 163.245 268.07 163.216 268.267 163.216C268.401 163.216 268.502 163.224 268.571 163.24C268.641 163.256 268.691 163.28 268.723 163.312C268.755 163.339 268.79 163.371 268.827 163.408L270.568 165.759L272.315 163.408C272.358 163.355 272.401 163.315 272.443 163.288C272.486 163.261 272.539 163.243 272.603 163.232C272.673 163.221 272.769 163.216 272.891 163.216C273.083 163.216 273.222 163.245 273.307 163.304C273.393 163.363 273.446 163.44 273.467 163.536C273.489 163.627 273.499 163.723 273.499 163.824V168.2C273.499 168.301 273.489 168.397 273.467 168.488C273.446 168.579 273.393 168.653 273.307 168.712C273.222 168.771 273.081 168.8 272.883 168.8C272.691 168.8 272.553 168.771 272.467 168.712C272.382 168.653 272.329 168.576 272.307 168.48C272.286 168.384 272.275 168.285 272.275 168.184V165.328L271.083 167.016C271.062 167.043 271.033 167.08 270.995 167.128C270.958 167.171 270.905 167.208 270.835 167.24C270.771 167.272 270.683 167.288 270.571 167.288C270.454 167.288 270.361 167.272 270.291 167.24C270.227 167.208 270.177 167.171 270.139 167.128C270.102 167.085 270.07 167.048 270.043 167.016L268.859 165.336V168.2C268.859 168.301 268.849 168.397 268.827 168.488C268.806 168.579 268.753 168.653 268.667 168.712C268.587 168.771 268.449 168.8 268.251 168.8ZM267.252 168.296C267.246 168.2 267.212 168.085 267.148 167.952L265.036 163.568C264.998 163.493 264.95 163.429 264.892 163.376C264.838 163.323 264.777 163.283 264.708 163.256C264.638 163.224 264.564 163.208 264.484 163.208C264.372 163.208 264.262 163.24 264.156 163.304C264.054 163.368 263.977 163.453 263.924 163.56L261.82 167.936C261.75 168.069 261.713 168.187 261.708 168.288C261.702 168.384 261.729 168.469 261.788 168.544C261.852 168.613 261.953 168.68 262.092 168.744C262.305 168.845 262.468 168.875 262.58 168.832C262.697 168.795 262.809 168.672 262.916 168.464L263.376 167.496H265.581L266.044 168.464C266.145 168.677 266.254 168.803 266.372 168.84C266.489 168.883 266.654 168.853 266.868 168.752C267.006 168.683 267.105 168.613 267.164 168.544C267.228 168.469 267.257 168.387 267.252 168.296ZM265.087 166.464L264.476 165.184L263.867 166.464H265.087ZM257.769 168.8C257.577 168.8 257.438 168.773 257.353 168.72C257.267 168.661 257.214 168.584 257.193 168.488C257.177 168.392 257.169 168.293 257.169 168.192V163.816C257.169 163.581 257.214 163.421 257.305 163.336C257.395 163.251 257.558 163.208 257.793 163.208H260.817C260.923 163.208 261.022 163.219 261.113 163.24C261.203 163.256 261.278 163.307 261.337 163.392C261.395 163.477 261.425 163.621 261.425 163.824C261.425 164.016 261.395 164.155 261.337 164.24C261.278 164.325 261.201 164.379 261.105 164.4C261.014 164.416 260.915 164.424 260.809 164.424H258.385V165.456H260.033C260.139 165.456 260.233 165.464 260.313 165.48C260.398 165.496 260.465 165.541 260.513 165.616C260.561 165.691 260.585 165.816 260.585 165.992C260.585 166.157 260.561 166.277 260.513 166.352C260.465 166.427 260.398 166.472 260.313 166.488C260.227 166.504 260.129 166.512 260.017 166.512H258.385V167.584H260.817C260.923 167.584 261.022 167.595 261.113 167.616C261.203 167.637 261.278 167.691 261.337 167.776C261.395 167.856 261.425 167.997 261.425 168.2C261.425 168.392 261.395 168.531 261.337 168.616C261.278 168.701 261.201 168.752 261.105 168.768C261.014 168.789 260.915 168.8 260.809 168.8H257.769ZM252.446 168.712C252.531 168.771 252.67 168.8 252.862 168.8C253.059 168.8 253.201 168.771 253.286 168.712C253.371 168.653 253.425 168.579 253.446 168.488C253.467 168.392 253.478 168.293 253.478 168.192V167.128H254.443L255.398 168.496C255.526 168.672 255.649 168.776 255.766 168.808C255.883 168.84 256.041 168.784 256.238 168.64C256.377 168.539 256.47 168.448 256.518 168.368C256.571 168.288 256.585 168.203 256.558 168.112C256.537 168.021 256.481 167.912 256.39 167.784L255.694 166.786C255.843 166.676 255.971 166.55 256.078 166.408C256.211 166.232 256.31 166.04 256.374 165.832C256.443 165.624 256.478 165.408 256.478 165.184C256.478 164.848 256.419 164.557 256.302 164.312C256.185 164.067 256.03 163.861 255.838 163.696C255.646 163.531 255.435 163.408 255.206 163.328C254.977 163.248 254.753 163.208 254.534 163.208H252.87C252.673 163.208 252.531 163.237 252.446 163.296C252.361 163.355 252.307 163.429 252.286 163.52C252.27 163.611 252.262 163.707 252.262 163.808V168.184C252.262 168.285 252.27 168.384 252.286 168.48C252.307 168.576 252.361 168.653 252.446 168.712ZM254.59 165.928H253.478V164.424H254.518C254.667 164.424 254.798 164.456 254.91 164.52C255.022 164.579 255.107 164.664 255.166 164.776C255.23 164.888 255.262 165.021 255.262 165.176C255.262 165.309 255.241 165.424 255.198 165.52C255.155 165.616 255.102 165.693 255.038 165.752C254.974 165.811 254.902 165.856 254.822 165.888C254.742 165.915 254.665 165.928 254.59 165.928ZM249.802 168.864C249.567 168.864 249.319 168.827 249.058 168.752C248.796 168.677 248.54 168.565 248.29 168.416C248.039 168.267 247.81 168.077 247.602 167.848C247.399 167.613 247.236 167.341 247.114 167.032C246.996 166.717 246.938 166.36 246.938 165.96C246.938 165.576 246.996 165.235 247.114 164.936C247.236 164.632 247.399 164.368 247.602 164.144C247.804 163.92 248.031 163.736 248.282 163.592C248.532 163.443 248.791 163.333 249.058 163.264C249.324 163.189 249.578 163.152 249.818 163.152C250.09 163.152 250.327 163.184 250.53 163.248C250.732 163.312 250.898 163.379 251.026 163.448C251.154 163.512 251.234 163.557 251.266 163.584C251.362 163.643 251.452 163.709 251.538 163.784C251.623 163.859 251.668 163.957 251.674 164.08C251.674 164.144 251.66 164.208 251.634 164.272C251.612 164.331 251.578 164.395 251.53 164.464C251.444 164.587 251.362 164.677 251.282 164.736C251.207 164.789 251.13 164.816 251.05 164.816C250.986 164.816 250.924 164.8 250.866 164.768C250.812 164.736 250.743 164.693 250.658 164.64C250.62 164.613 250.567 164.581 250.498 164.544C250.428 164.501 250.335 164.464 250.218 164.432C250.1 164.395 249.951 164.376 249.77 164.376C249.583 164.376 249.394 164.411 249.202 164.48C249.015 164.544 248.842 164.643 248.682 164.776C248.522 164.909 248.394 165.08 248.298 165.288C248.202 165.491 248.154 165.728 248.154 166C248.154 166.283 248.202 166.525 248.298 166.728C248.399 166.931 248.53 167.099 248.69 167.232C248.85 167.365 249.023 167.467 249.21 167.536C249.402 167.6 249.588 167.632 249.77 167.632C249.93 167.632 250.066 167.616 250.178 167.584C250.295 167.552 250.394 167.515 250.474 167.472C250.559 167.424 250.631 167.381 250.69 167.344C250.748 167.307 250.807 167.272 250.866 167.24C250.93 167.208 250.994 167.192 251.058 167.192C251.132 167.192 251.207 167.221 251.282 167.28C251.362 167.339 251.442 167.432 251.522 167.56C251.57 167.629 251.607 167.699 251.634 167.768C251.66 167.832 251.671 167.896 251.666 167.96C251.666 168.072 251.623 168.165 251.538 168.24C251.452 168.309 251.362 168.373 251.266 168.432C251.223 168.453 251.14 168.501 251.018 168.576C250.895 168.645 250.732 168.709 250.53 168.768C250.327 168.832 250.084 168.864 249.802 168.864ZM240.509 168.72C240.594 168.773 240.733 168.8 240.925 168.8H243.965C244.072 168.8 244.17 168.789 244.261 168.768C244.357 168.752 244.434 168.701 244.493 168.616C244.552 168.531 244.581 168.392 244.581 168.2C244.581 167.997 244.552 167.856 244.493 167.776C244.434 167.691 244.36 167.637 244.269 167.616C244.178 167.595 244.08 167.584 243.973 167.584H241.541V166.512H243.173C243.285 166.512 243.384 166.504 243.469 166.488C243.554 166.472 243.621 166.427 243.669 166.352C243.717 166.277 243.741 166.157 243.741 165.992C243.741 165.816 243.717 165.691 243.669 165.616C243.621 165.541 243.554 165.496 243.469 165.48C243.389 165.464 243.296 165.456 243.189 165.456H241.541V164.424H243.965C244.072 164.424 244.17 164.416 244.261 164.4C244.357 164.379 244.434 164.325 244.493 164.24C244.552 164.155 244.581 164.016 244.581 163.824C244.581 163.621 244.552 163.477 244.493 163.392C244.434 163.307 244.36 163.256 244.269 163.24C244.178 163.219 244.08 163.208 243.973 163.208H240.949C240.714 163.208 240.552 163.251 240.461 163.336C240.37 163.421 240.325 163.581 240.325 163.816V168.192C240.325 168.293 240.333 168.392 240.349 168.488C240.37 168.584 240.424 168.661 240.509 168.72ZM229.382 168.712C229.468 168.771 229.604 168.8 229.79 168.8H231.214C231.609 168.8 231.972 168.728 232.302 168.584C232.638 168.44 232.932 168.243 233.182 167.992C233.433 167.736 233.628 167.437 233.766 167.096C233.905 166.749 233.974 166.376 233.974 165.976C233.974 165.581 233.905 165.216 233.766 164.88C233.628 164.544 233.433 164.251 233.182 164C232.932 163.749 232.641 163.555 232.31 163.416C231.98 163.277 231.622 163.208 231.238 163.208H229.798C229.601 163.203 229.46 163.229 229.374 163.288C229.289 163.347 229.236 163.424 229.214 163.52C229.193 163.611 229.182 163.707 229.182 163.808V168.184C229.182 168.291 229.196 168.392 229.222 168.488C229.249 168.579 229.302 168.653 229.382 168.712ZM231.238 167.576H230.398V164.424H231.23C231.524 164.424 231.785 164.493 232.014 164.632C232.244 164.765 232.425 164.952 232.558 165.192C232.692 165.432 232.758 165.704 232.758 166.008C232.758 166.312 232.692 166.581 232.558 166.816C232.425 167.051 232.244 167.237 232.014 167.376C231.785 167.509 231.526 167.576 231.238 167.576ZM224.988 168.8C224.796 168.8 224.657 168.773 224.572 168.72C224.486 168.661 224.433 168.584 224.412 168.488C224.396 168.392 224.388 168.293 224.388 168.192V163.816C224.388 163.581 224.433 163.421 224.524 163.336C224.614 163.251 224.777 163.208 225.012 163.208H228.036C228.142 163.208 228.241 163.219 228.332 163.24C228.422 163.256 228.497 163.307 228.556 163.392C228.614 163.477 228.644 163.621 228.644 163.824C228.644 164.016 228.614 164.155 228.556 164.24C228.497 164.325 228.42 164.379 228.324 164.4C228.233 164.416 228.134 164.424 228.028 164.424H225.604V165.456H227.252C227.358 165.456 227.452 165.464 227.532 165.48C227.617 165.496 227.684 165.541 227.732 165.616C227.78 165.691 227.804 165.816 227.804 165.992C227.804 166.157 227.78 166.277 227.732 166.352C227.684 166.427 227.617 166.472 227.532 166.488C227.446 166.504 227.348 166.512 227.236 166.512H225.604V167.584H228.036C228.142 167.584 228.241 167.595 228.332 167.616C228.422 167.637 228.497 167.691 228.556 167.776C228.614 167.856 228.644 167.997 228.644 168.2C228.644 168.392 228.614 168.531 228.556 168.616C228.497 168.701 228.42 168.752 228.324 168.768C228.233 168.789 228.134 168.8 228.028 168.8H224.988ZM218.158 168.72C218.244 168.773 218.382 168.8 218.574 168.8H221.374C221.465 168.8 221.548 168.792 221.622 168.776C221.702 168.76 221.769 168.715 221.822 168.64C221.876 168.56 221.902 168.437 221.902 168.272C221.902 168.101 221.876 167.979 221.822 167.904C221.774 167.829 221.71 167.784 221.63 167.768C221.55 167.752 221.465 167.744 221.374 167.744H219.182V163.816C219.182 163.709 219.172 163.611 219.15 163.52C219.134 163.429 219.084 163.355 218.998 163.296C218.918 163.237 218.777 163.208 218.574 163.208C218.377 163.208 218.236 163.237 218.15 163.296C218.065 163.355 218.012 163.429 217.99 163.52C217.974 163.611 217.966 163.709 217.966 163.816V168.192C217.966 168.293 217.977 168.392 217.998 168.488C218.02 168.584 218.073 168.661 218.158 168.72ZM214.666 168.88C214.282 168.88 213.919 168.808 213.578 168.664C213.242 168.515 212.946 168.312 212.69 168.056C212.439 167.795 212.239 167.493 212.09 167.152C211.946 166.811 211.874 166.443 211.874 166.048C211.874 165.648 211.943 165.275 212.082 164.928C212.226 164.576 212.42 164.267 212.666 164C212.916 163.733 213.207 163.525 213.538 163.376C213.868 163.227 214.223 163.152 214.602 163.152C214.986 163.152 215.346 163.227 215.682 163.376C216.023 163.52 216.319 163.723 216.57 163.984C216.82 164.245 217.018 164.549 217.162 164.896C217.311 165.243 217.386 165.619 217.386 166.024C217.386 166.413 217.314 166.781 217.17 167.128C217.031 167.469 216.836 167.773 216.586 168.04C216.335 168.301 216.044 168.507 215.714 168.656C215.388 168.805 215.039 168.88 214.666 168.88ZM214.626 167.664C214.839 167.664 215.039 167.621 215.226 167.536C215.412 167.451 215.575 167.336 215.714 167.192C215.858 167.043 215.967 166.869 216.042 166.672C216.122 166.469 216.162 166.251 216.162 166.016C216.162 165.792 216.122 165.581 216.042 165.384C215.962 165.181 215.85 165.005 215.706 164.856C215.567 164.701 215.404 164.581 215.218 164.496C215.036 164.411 214.839 164.368 214.626 164.368C214.418 164.368 214.22 164.411 214.034 164.496C213.852 164.581 213.69 164.701 213.546 164.856C213.407 165.005 213.295 165.181 213.21 165.384C213.13 165.581 213.09 165.795 213.09 166.024C213.09 166.248 213.13 166.461 213.21 166.664C213.295 166.861 213.407 167.035 213.546 167.184C213.69 167.333 213.852 167.451 214.034 167.536C214.215 167.621 214.412 167.664 214.626 167.664ZM207.781 168.664C208.122 168.808 208.485 168.88 208.869 168.88C209.242 168.88 209.591 168.805 209.917 168.656C210.247 168.507 210.538 168.301 210.789 168.04C211.039 167.773 211.234 167.469 211.373 167.128C211.517 166.781 211.589 166.413 211.589 166.024C211.589 165.619 211.514 165.243 211.365 164.896C211.221 164.549 211.023 164.245 210.773 163.984C210.522 163.723 210.226 163.52 209.885 163.376C209.549 163.227 209.189 163.152 208.805 163.152C208.426 163.152 208.071 163.227 207.741 163.376C207.41 163.525 207.119 163.733 206.869 164C206.623 164.267 206.429 164.576 206.285 164.928C206.146 165.275 206.077 165.648 206.077 166.048C206.077 166.443 206.149 166.811 206.293 167.152C206.442 167.493 206.642 167.795 206.893 168.056C207.149 168.312 207.445 168.515 207.781 168.664ZM209.429 167.536C209.242 167.621 209.042 167.664 208.829 167.664C208.615 167.664 208.418 167.621 208.237 167.536C208.055 167.451 207.893 167.333 207.749 167.184C207.61 167.035 207.498 166.861 207.413 166.664C207.333 166.461 207.293 166.248 207.293 166.024C207.293 165.795 207.333 165.581 207.413 165.384C207.498 165.181 207.61 165.005 207.749 164.856C207.893 164.701 208.055 164.581 208.237 164.496C208.423 164.411 208.621 164.368 208.829 164.368C209.042 164.368 209.239 164.411 209.421 164.496C209.607 164.581 209.77 164.701 209.909 164.856C210.053 165.005 210.165 165.181 210.245 165.384C210.325 165.581 210.365 165.792 210.365 166.016C210.365 166.251 210.325 166.469 210.245 166.672C210.17 166.869 210.061 167.043 209.917 167.192C209.778 167.336 209.615 167.451 209.429 167.536ZM203.864 168.864C203.629 168.864 203.381 168.827 203.12 168.752C202.859 168.677 202.603 168.565 202.352 168.416C202.101 168.267 201.872 168.077 201.664 167.848C201.461 167.613 201.299 167.341 201.176 167.032C201.059 166.717 201 166.36 201 165.96C201 165.576 201.059 165.235 201.176 164.936C201.299 164.632 201.461 164.368 201.664 164.144C201.867 163.92 202.093 163.736 202.344 163.592C202.595 163.443 202.853 163.333 203.12 163.264C203.387 163.189 203.64 163.152 203.88 163.152C204.152 163.152 204.389 163.184 204.592 163.248C204.795 163.312 204.96 163.379 205.088 163.448C205.216 163.512 205.296 163.557 205.328 163.584C205.424 163.643 205.515 163.709 205.6 163.784C205.685 163.859 205.731 163.957 205.736 164.08C205.736 164.144 205.723 164.208 205.696 164.272C205.675 164.331 205.64 164.395 205.592 164.464C205.507 164.587 205.424 164.677 205.344 164.736C205.269 164.789 205.192 164.816 205.112 164.816C205.048 164.816 204.987 164.8 204.928 164.768C204.875 164.736 204.805 164.693 204.72 164.64C204.683 164.613 204.629 164.581 204.56 164.544C204.491 164.501 204.397 164.464 204.28 164.432C204.163 164.395 204.013 164.376 203.832 164.376C203.645 164.376 203.456 164.411 203.264 164.48C203.077 164.544 202.904 164.643 202.744 164.776C202.584 164.909 202.456 165.08 202.36 165.288C202.264 165.491 202.216 165.728 202.216 166C202.216 166.283 202.264 166.525 202.36 166.728C202.461 166.931 202.592 167.099 202.752 167.232C202.912 167.365 203.085 167.467 203.272 167.536C203.464 167.6 203.651 167.632 203.832 167.632C203.992 167.632 204.128 167.616 204.24 167.584C204.357 167.552 204.456 167.515 204.536 167.472C204.621 167.424 204.693 167.381 204.752 167.344C204.811 167.307 204.869 167.272 204.928 167.24C204.992 167.208 205.056 167.192 205.12 167.192C205.195 167.192 205.269 167.221 205.344 167.28C205.424 167.339 205.504 167.432 205.584 167.56C205.632 167.629 205.669 167.699 205.696 167.768C205.723 167.832 205.733 167.896 205.728 167.96C205.728 168.072 205.685 168.165 205.6 168.24C205.515 168.309 205.424 168.373 205.328 168.432C205.285 168.453 205.203 168.501 205.08 168.576C204.957 168.645 204.795 168.709 204.592 168.768C204.389 168.832 204.147 168.864 203.864 168.864Z" fill="white"/>
<path fill-rule="evenodd" clip-rule="evenodd" d="M13.6918 144.629H15.1343C14.9607 144.221 14.8679 143.779 14.8679 143.322C14.8679 142.434 15.2131 141.599 15.8396 140.972C17.1324 139.676 19.2362 139.676 20.529 140.972L22.3306 142.778C22.7625 142.357 23.3511 142.096 24.0005 142.096C24.6499 142.096 25.2395 142.356 25.6704 142.778L27.472 140.972C28.7648 139.676 30.8686 139.676 32.1614 140.972C32.7879 141.6 33.1321 142.435 33.1321 143.322C33.1321 143.779 33.0393 144.221 32.8657 144.629H34.3082C35.2429 144.629 36 145.388 36 146.325V148.621C36 149.104 35.61 149.495 35.1281 149.495H12.8719C12.39 149.495 12 149.104 12 148.621V146.325C12 145.388 12.7571 144.629 13.6918 144.629ZM19.1424 142.362C18.6137 141.833 17.7549 141.832 17.2262 142.362C16.9698 142.619 16.8291 142.96 16.8291 143.323C16.8291 143.686 16.9698 144.027 17.2262 144.284C17.269 144.327 17.3149 144.367 17.3638 144.403C17.5793 144.565 17.8536 144.63 18.1229 144.63H21.4039L19.1424 142.363V142.362ZM30.7748 144.283C31.0302 144.026 31.1719 143.685 31.1719 143.322C31.1719 142.905 30.9863 142.517 30.6531 142.253C30.1065 141.82 29.3104 141.908 28.8177 142.402L26.5971 144.628H29.8781C30.1474 144.628 30.4217 144.564 30.6372 144.401C30.6851 144.365 30.731 144.325 30.7748 144.282V144.283ZM34.4638 161.964C34.4638 163.088 33.554 164 32.4328 164H25.4569V150.839H34.4638V161.964ZM15.5662 164H22.5421V150.839H13.5352V161.964C13.5352 163.088 14.445 164 15.5662 164Z" fill="white"/>
<path fill-rule="evenodd" clip-rule="evenodd" d="M23 168V180H25V168H23ZM40 153H300V151H40V153ZM25 136L25 0H23L23 136H25ZM8 151H0V153H8V151Z" fill="white"/>
</g>
<defs>
<clipPath id="clip0_68_586">
<rect width="300" height="180" rx="16" fill="white"/>
</clipPath>
</defs>
</svg>
