<?xml version="1.0" encoding="utf-8"?>
<!-- Generator: Adobe Illustrator 27.6.1, SVG Export Plug-In . SVG Version: 6.00 Build 0)  -->
<svg version="1.1" id="Layer_1" xmlns="http://www.w3.org/2000/svg" xmlns:xlink="http://www.w3.org/1999/xlink" x="0px" y="0px"
	 viewBox="0 0 128 128" style="enable-background:new 0 0 128 128;" xml:space="preserve">
<style type="text/css">
	.st0{fill-rule:evenodd;clip-rule:evenodd;fill:#FFFFFF;}
	.st1{fill-rule:evenodd;clip-rule:evenodd;fill:#E60073;}
	.st2{fill-rule:evenodd;clip-rule:evenodd;fill:#FAEFDF;}
</style>
<path class="st0" d="M0,42.7v17.1c4.5,0,6.6,1.2,8.1,2.4c2.3,1.9,4.3,4.8,7.9,10.4l0.4,0.6c3.3,5.1,8.1,12.6,15.4,18.4
	c8.3,6.7,18.8,10.8,32.2,10.8s23.9-4,32.2-10.8c7.2-5.9,12.1-13.4,15.4-18.4l0.4-0.6c3.6-5.6,5.7-8.5,7.9-10.4
	c0.9-0.7,2-1.5,3.7-1.9c1.1-0.3,2.6-0.5,4.4-0.5V42.7H0z"/>
<path class="st1" d="M64,0H0v42.7c17,0,23.6,10.2,30.3,20.6c7.1,10.9,14.3,22,33.7,22c19.4,0,26.6-11.1,33.7-22
	c6.7-10.4,13.3-20.6,30.3-20.6V0H64z"/>
<path class="st2" d="M0,29.9L0,29.9c2.4,0,4.3-1.9,4.3-4.3c0-2.4-1.9-4.3-4.3-4.3h0V29.9z M128,21.3L128,21.3
	c-2.4,0-4.3,1.9-4.3,4.3c0,2.4,1.9,4.3,4.3,4.3h0V21.3z M20.7,27.9c-1.9-1.4-4.5-1.1-6,0.8s-1.1,4.5,0.8,6l0,0
	c1.9,1.4,4.5,1.1,6-0.8C22.9,32.1,22.6,29.4,20.7,27.9L20.7,27.9z M112.5,34.7c1.9-1.4,2.2-4.1,0.8-6c-1.4-1.9-4.1-2.2-6-0.8l0,0
	c-1.9,1.4-2.2,4.1-0.8,6C107.9,35.8,110.6,36.1,112.5,34.7L112.5,34.7z M100,42.6c-2-1.3-4.6-0.7-5.9,1.3l0,0
	c-1.3,2-0.7,4.6,1.3,5.9c2,1.3,4.6,0.7,5.9-1.3l0,0C102.6,46.5,102,43.9,100,42.6z M33.9,43.9c-1.3-2-3.9-2.5-5.9-1.3
	c-2,1.3-2.5,3.9-1.3,5.9l0,0c1.3,2,3.9,2.5,5.9,1.3C34.6,48.5,35.2,45.9,33.9,43.9L33.9,43.9L33.9,43.9z M86.6,65.8
	c1.9-1.4,2.3-4,1-6c-1.4-1.9-4-2.3-6-1l0,0c-1.9,1.4-2.3,4-1,6C82,66.8,84.7,67.2,86.6,65.8L86.6,65.8z M46.4,58.9
	c-1.9-1.4-4.6-1-6,1c-1.4,1.9-1,4.6,1,6l0,0c1.9,1.4,4.6,0.9,6-1C48.8,63,48.3,60.3,46.4,58.9L46.4,58.9z M64,64
	c-2.4,0-4.3,1.9-4.3,4.3c0,2.4,1.9,4.3,4.3,4.3h0c2.4,0,4.3-1.9,4.3-4.3C68.3,65.9,66.4,64,64,64L64,64z"/>
</svg>
