<svg width="36" height="64" viewBox="0 0 36 64" fill="none" xmlns="http://www.w3.org/2000/svg">
<path d="M25.6877 0C21.3861 0 17.2607 1.7088 14.219 4.75049C11.1773 7.79217 9.46849 11.9176 9.46849 16.2192V25.2493H0.789041C0.354191 25.2493 0 25.6 0 26.0384V37.9616C0 38.3965 0.350685 38.7507 0.789041 38.7507H9.46849V63.211C9.46849 63.6458 9.81918 64 10.2575 64H22.1808C22.6157 64 22.9699 63.6493 22.9699 63.211V38.7507H31.7265C32.0877 38.7507 32.4033 38.5052 32.491 38.1545L35.4718 26.2312C35.5011 26.1149 35.5035 25.9934 35.4788 25.876C35.4541 25.7585 35.403 25.6483 35.3293 25.5536C35.2556 25.4589 35.1612 25.3823 35.0534 25.3296C34.9457 25.2769 34.8273 25.2494 34.7073 25.2493H22.9699V16.2192C22.9699 15.8623 23.0402 15.5089 23.1767 15.1791C23.3133 14.8494 23.5135 14.5498 23.7659 14.2974C24.0183 14.045 24.3179 13.8448 24.6476 13.7083C24.9773 13.5717 25.3308 13.5014 25.6877 13.5014H34.8055C35.2403 13.5014 35.5945 13.1507 35.5945 12.7123V0.789041C35.5945 0.354191 35.2438 0 34.8055 0H25.6877Z" fill="white"/>
</svg>
