<?xml version="1.0" encoding="UTF-8"?>
<svg id="Layer_1" data-name="Layer 1" xmlns="http://www.w3.org/2000/svg" viewBox="0 0 256.64 256">
  <defs>
    <style>
      .cls-1 {
        fill: #fff;
      }
    </style>
  </defs>
  <path class="cls-1" d="m231.65,54.29h-14.46c1.74-4.08,2.67-8.5,2.67-13.07,0-8.88-3.46-17.23-9.74-23.5-12.96-12.96-34.05-12.96-47.01,0l-18.06,18.06c-4.33-4.21-10.23-6.82-16.74-6.82s-12.42,2.6-16.74,6.82l-18.06-18.06c-12.96-12.96-34.05-12.96-47.01,0-6.28,6.28-9.73,14.63-9.73,23.5,0,4.57.93,8.99,2.67,13.07h-14.46c-9.37,0-16.96,7.59-16.96,16.96v22.96c0,4.83,3.91,8.74,8.74,8.74h223.11c4.83,0,8.74-3.91,8.74-8.74v-22.96c0-9.37-7.59-16.96-16.96-16.96Zm-54.64-22.67c5.3-5.29,13.91-5.3,19.21,0,2.57,2.57,3.98,5.98,3.98,9.61s-1.41,7.04-3.98,9.61c-.43.43-.89.83-1.38,1.19-2.16,1.62-4.91,2.27-7.61,2.27h-32.89l22.67-22.67Zm-116.61,19.21c-2.56-2.57-3.98-5.98-3.98-9.61,0-4.17,1.86-8.05,5.2-10.69,5.48-4.33,13.46-3.45,18.4,1.49l22.26,22.26h-32.89c-2.7,0-5.45-.64-7.61-2.27-.48-.36-.94-.76-1.38-1.19Z"/>
  <path class="cls-1" d="m23.42,227.64c0,11.24,9.12,20.36,20.36,20.36h69.93V116.39H23.42v111.25Z"/>
  <path class="cls-1" d="m142.93,248h69.93c11.24,0,20.36-9.12,20.36-20.36v-111.25h-90.29v131.61Z"/>
</svg>