<svg width="107" height="128" viewBox="0 0 107 128" fill="none" xmlns="http://www.w3.org/2000/svg">
<path d="M97.7744 44.8941V44.1382C97.7744 32.432 93.0922 21.2053 84.7579 12.9278C76.4236 4.65026 65.1198 0 53.3333 0C41.5468 0 30.2431 4.65026 21.9088 12.9278C13.5745 21.2053 8.8923 32.432 8.8923 44.1382V44.8941C5.92611 45.9346 3.42591 47.9832 1.83376 50.6778C0.241611 53.3724 -0.339914 56.5394 0.192011 59.6187C0.723936 62.6981 2.33504 65.4914 4.74046 67.5048C7.14588 69.5183 10.1906 70.6221 13.3364 70.6212H15.164L45.6173 123.554C46.3948 124.905 47.518 126.027 48.873 126.808C50.228 127.589 51.7668 128 53.3333 128C54.8999 128 56.4386 127.589 57.7936 126.808C59.1487 126.027 60.2719 124.905 61.0494 123.554L91.5026 70.6212H93.3303C96.476 70.6221 99.5208 69.5183 101.926 67.5048C104.332 65.4914 105.943 62.6981 106.475 59.6187C107.007 56.5394 106.425 53.3724 104.833 50.6778C103.241 47.9832 100.741 45.9346 97.7744 44.8941ZM63.827 100.933L46.3894 70.6212H57.1053L69.1877 91.6199L63.827 100.933ZM25.3966 70.6212H36.1513L58.7107 109.827L53.3333 119.173L25.3966 70.6212ZM74.2817 82.7261L67.3378 70.6212H81.2701L74.2817 82.7261Z" fill="white"/>
</svg>
