<svg width="64" height="64" viewBox="0 0 64 64" fill="none" xmlns="http://www.w3.org/2000/svg">
<path d="M14.326 64H1.05717V21.2705H14.326V64ZM7.68446 15.4418C3.44151 15.4418 0 11.9274 0 7.68446C3.03692e-08 5.64641 0.80961 3.69184 2.25073 2.25073C3.69184 0.80961 5.64641 0 7.68446 0C9.7225 0 11.6771 0.80961 13.1182 2.25073C14.5593 3.69184 15.3689 5.64641 15.3689 7.68446C15.3689 11.9274 11.926 15.4418 7.68446 15.4418ZM63.9871 64H50.7468V43.1995C50.7468 38.2423 50.6468 31.885 43.8481 31.885C36.9494 31.885 35.8922 37.2708 35.8922 42.8424V64H22.6376V21.2705H35.3636V27.0992H35.5494C37.3208 23.742 41.6481 20.199 48.1039 20.199C61.5328 20.199 64.0014 29.0421 64.0014 40.528V64H63.9871Z" fill="white"/>
</svg>
