<svg width="234" height="178" viewBox="0 0 234 178" fill="none" xmlns="http://www.w3.org/2000/svg">
<path fill-rule="evenodd" clip-rule="evenodd" d="M13.0061 0.264768C13.9646 -0.284134 15.1866 0.0479352 15.7355 1.00647C48.9799 59.0601 116.544 125.203 231.56 154.562C232.63 154.836 233.276 155.925 233.003 156.995C232.73 158.065 231.641 158.711 230.571 158.438C114.456 128.798 46.02 61.9406 12.2644 2.99422C11.7155 2.03569 12.0476 0.81367 13.0061 0.264768Z" fill="#805D40"/>
<path d="M165.559 158.955C165.636 161.57 168.789 162.841 170.657 161.01L190.995 141.081C192.54 139.567 192.023 136.964 190.016 136.156L168.845 127.623C166.839 126.814 164.662 128.331 164.725 130.493L165.559 158.955Z" fill="#00AEFF"/>
<path d="M50.5924 85.1792C49.6411 87.6162 52.0471 90.0183 54.4825 89.063L80.9902 78.6652C83.0043 77.8752 83.5454 75.2778 82.0143 73.7493L65.8607 57.6222C64.3296 56.0937 61.7332 56.6391 60.9465 58.6544L50.5924 85.1792Z" fill="#00AEFF"/>
<path d="M76.397 107.602C75.7613 110.14 78.4516 112.219 80.7468 110.963L105.728 97.2988C107.626 96.2606 107.834 93.6157 106.123 92.2929L88.0603 78.3367C86.3483 77.0139 83.8416 77.883 83.3159 79.9816L76.397 107.602Z" fill="#FAA82D"/>
<path d="M197.649 170.916C197.901 173.519 201.133 174.576 202.874 172.623L221.827 151.373C223.267 149.759 222.576 147.197 220.52 146.525L198.823 139.433C196.767 138.761 194.697 140.421 194.905 142.574L197.649 170.916Z" fill="#FAA82D"/>
<path d="M104.849 127.372C104.469 129.96 107.353 131.761 109.512 130.283L133.009 114.201C134.794 112.979 134.738 110.326 132.903 109.181L113.542 97.091C111.707 95.9452 109.299 97.0594 108.985 99.1999L104.849 127.372Z" fill="#FF0080"/>
<path d="M7.33705 32.6307C5.77351 34.7281 7.4563 37.6822 10.0578 37.407L38.374 34.4119C40.5254 34.1843 41.736 31.8235 40.6652 29.9436L29.3671 10.1099C28.2963 8.23004 25.6482 8.06725 24.3552 9.80178L7.33705 32.6307Z" fill="#FF0080"/>
<path d="M134.502 143.943C134.346 146.554 137.374 148.1 139.398 146.443L161.427 128.402C163.101 127.031 162.818 124.393 160.891 123.409L140.563 113.027C138.636 112.043 136.333 113.36 136.204 115.519L134.502 143.943Z" fill="#9E00FF"/>
<path d="M28.194 62.6351C27.1308 65.0254 29.423 67.5363 31.9 66.6948L58.861 57.5362C60.9095 56.8403 61.5703 54.2708 60.1117 52.673L44.7225 35.815C43.2639 34.2171 40.645 34.6416 39.7657 36.6184L28.194 62.6351Z" fill="#9E00FF"/>
</svg>
