<?xml version="1.0" encoding="UTF-8"?>
<svg id="Layer_1" data-name="Layer 1" xmlns="http://www.w3.org/2000/svg" viewBox="0 0 256 256">
  <defs>
    <style>
      .cls-1 {
        fill: #00aeff;
      }

      .cls-2 {
        fill: #4e342e;
      }

      .cls-3 {
        fill: #fdbe00;
      }

      .cls-4 {
        fill: #9e00ff;
      }

      .cls-5 {
        fill: #ff0080;
      }

      .cls-6 {
        fill: #faa82d;
      }
    </style>
  </defs>
  <g>
    <path class="cls-3" d="m75,75.21L19.69,208.45c-2.99,7.21,4.19,14.45,11.42,11.52l135.08-54.71-91.19-90.05Z"/>
    <ellipse class="cls-2" cx="123.56" cy="117" rx="26.6" ry="64.99" transform="translate(-46.54 121.64) rotate(-45)"/>
    <g>
      <path class="cls-4" d="m58.59,181.97c-8.29-8.29-13.98-18.16-16.25-28.07l-10.7,25.78c3.5,5.83,7.81,11.36,12.85,16.4,4.75,4.75,9.94,8.85,15.4,12.24l25.61-10.37c-9.52-2.45-18.93-8.01-26.9-15.98Z"/>
      <path class="cls-4" d="m135.79,175.69c-16.24-2.53-32.6-11.35-46.09-24.84s-22.3-29.85-24.84-46.09c-.21-1.36-.36-2.69-.48-4.01l-12.45,29.99c5.39,12.29,13.43,23.99,23.65,34.21,10.05,10.05,21.54,17.99,33.6,23.38l30.15-12.21c-1.17-.11-2.36-.25-3.56-.44Z"/>
    </g>
  </g>
  <rect class="cls-5" x="124.41" y="11.03" width="13.48" height="13.48" rx="6.51" ry="6.51" transform="translate(25.85 97.94) rotate(-45)"/>
  <rect class="cls-6" x="52.9" y="11.03" width="13.48" height="13.48" rx="6.51" ry="6.51" transform="translate(4.9 47.38) rotate(-45)"/>
  <rect class="cls-5" x="14.17" y="127.64" width="13.48" height="13.48" rx="6.51" ry="6.51" transform="translate(-88.9 54.14) rotate(-45)"/>
  <rect class="cls-1" x="137.32" y="49.78" width="13.48" height="13.48" rx="6.51" ry="6.51" transform="translate(2.23 118.42) rotate(-45)"/>
  <rect class="cls-5" x="228.3" y="82.35" width="13.48" height="13.48" rx="6.51" ry="6.51" transform="translate(5.84 192.29) rotate(-45)"/>
  <rect class="cls-6" x="195.92" y="153.86" width="13.48" height="13.48" rx="6.51" ry="6.51" transform="translate(-54.21 190.34) rotate(-45)"/>
  <rect class="cls-1" x="72.63" y="225.19" width="13.48" height="13.48" rx="6.51" ry="6.51" transform="translate(-140.75 124.06) rotate(-45)"/>
  <rect class="cls-1" x="222.39" y="173.78" width="19.34" height="19.34" rx="6.51" ry="6.51" transform="translate(-61.75 217.82) rotate(-45)"/>
  <rect class="cls-5" x="118.21" y="199.9" width="19.34" height="19.34" rx="6.51" ry="6.51" transform="translate(-110.73 151.8) rotate(-45)"/>
  <path class="cls-1" d="m20.91,105.68c-2.47,0-4.82-1.47-5.8-3.93-1.26-3.16.38-6.76,3.51-8.11,7.06-3.07,19.49-9.34,23.36-13.4.43-.45.72-.83.93-1.13-.44-.07-1.07-.04-1.79-.04-6.73.05-19.27.14-25.65-6.19-2.49-2.47-3.81-5.65-3.81-9.19,0-9.58,8.69-13.38,13.88-15.65,1.18-.51,2.77-1.21,3.84-1.82-1.01-.74-2.59-1.65-3.75-2.32-5.56-3.21-13.97-8.05-13.97-18.75,0-7.93,4.46-12.65,9.61-15.02,4.09-1.89,8.76,1.12,8.78,5.62h0c.01,2.4-1.35,4.61-3.53,5.62-1.33.62-2.39,1.75-2.39,3.78,0,3.15,2.47,4.92,7.73,7.95,4.79,2.76,10.75,6.19,10.75,13.3,0,7.79-7.26,10.97-12.07,13.06-3.63,1.58-6.4,2.9-6.4,4.22,0,.15.02.22.02.22.14.26,1.5,1.4,5.66,2.09,3.92.66,8.31.62,11.22.6.48,0,.91,0,1.3,0,5.67,0,10.59,2.94,12.54,7.48.95,2.23,2.49,8.13-3.86,14.78-6.93,7.26-25.53,15.41-27.63,16.32-.8.35-1.64.51-2.47.51Z"/>
  <path class="cls-5" d="m237.69,248c-.18,0-.37,0-.56-.02-3.43-.3-5.96-3.33-5.66-6.76.57-6.69-.49-19.53-5.63-20.3-3.07-.46-5.28,2.27-9.25,8.16-3.61,5.35-8.1,12.01-15.9,12.01-3.71,0-8.77-1.83-11.84-10.56-1.5-4.27-2.36-9.53-3.13-14.17-.09-.56-.19-1.17-.3-1.8-1.32,2.44-2.59,5.22-3.73,7.72-4.34,9.5-8.83,19.33-18.11,19.33-5.87,0-9.51-2.53-11.53-4.65-1.56-1.64-2.63-3.51-3.35-5.34-1.62-4.11,1.57-8.52,5.98-8.31l.36.02c2.43.12,4.5,1.69,5.4,3.95.18.44.39.82.64,1.08.2.2.71.73,2.31.77,1.93-1.05,5.06-7.91,6.95-12.04,3.41-7.45,6.93-15.16,12.76-18.98,2.35-1.54,5.08-1.81,7.5-.75,4.98,2.19,5.95,8.07,7.41,16.97.62,3.79,1.85,11.26,3.36,13.97,1.39-1.05,3.67-4.42,4.86-6.19,4.08-6.05,10.24-15.19,21.43-13.52,4.74.71,13.07,4.17,15.62,19.38,1.21,7.21.62,14.06.6,14.35-.29,3.24-3.01,5.69-6.2,5.69Z"/>
  <path class="cls-1" d="m141.96,132.2c-1.59,1.04-.55,3.52,1.31,3.13,8.6-1.8,23.99-4.21,44.96-4.21,28.66,0,40.33,7.38,43.13,15.48.88,2.54,3.34,4.19,6.03,4.19h0c4.29,0,7.44-4.13,6.19-8.23-1.86-6.09-7.26-14.22-22.18-19.58-23.79-8.55-58.62-4.48-79.44,9.22Z"/>
  <path class="cls-5" d="m106.58,95.07c-1.26,1.22-3.33.02-2.88-1.67,1.88-7.15,4.87-20.49,4.87-32.89,0-15.85-8.47-24.52-20.8-26.42-3.12-.48-5.42-3.17-5.42-6.32h0c0-4.01,3.65-7.06,7.59-6.29,8.23,1.6,20.98,6.08,26.97,18.57,8.35,17.41,2.58,42.44-10.33,55.02Z"/>
  <path class="cls-6" d="m122.49,114.08c-1.72.9-3.39-1.25-2.08-2.69,5.94-6.55,18.5-16.53,43.48-23.66,11.12-3.18,19.27-4.77,13.11-12.91s-13.21-17.28-8.34-27.01,23.14-5.07,29.8-3.38,11.52,2.19,12.91,2.19-1.79-3.58-3.38-7.35-4.68-18.27,3.72-24.23c6.88-4.89,15.47-6.57,25.67-7.01,3.79-.17,6.96,2.88,6.96,6.67h0c0,3.67-2.95,6.65-6.62,6.67-7.53.05-18.8,1.15-18.8,7.37,0,7.75,6.95,11.52,6.16,21.45s-12.51,11.02-20.46,9.44-21.55-4.77-24.63-4.67c0,0,1.49,5.66,9.34,14.7s2.28,22.25-7.15,25.82c-8.49,3.22-38.18,7.4-59.67,18.61Z"/>
</svg>